if (_typeface_js && _typeface_js.loadFace) _typeface_js.loadFace({"glyphs":{"¦":{"x_min":297,"x_max":399,"ha":694,"o":"m 399 277 l 399 -237 l 297 -237 l 297 277 l 399 277 m 399 971 l 399 457 l 297 457 l 297 971 l 399 971 "},"Ž":{"x_min":-46,"x_max":667,"ha":623,"o":"m 529 0 l -46 0 l -26 104 l 517 946 l 95 946 l 119 1044 l 667 1044 l 648 946 l 109 104 l 554 104 l 529 0 m 285 1306 l 352 1306 l 444 1201 l 589 1306 l 665 1306 l 499 1130 l 382 1130 l 285 1306 "},"Á":{"x_min":-89,"x_max":684,"ha":714,"o":"m 219 400 l 488 400 l 473 963 l 219 400 m 35 0 l -89 0 l 412 1044 l 555 1044 l 615 0 l 502 0 l 491 294 l 170 294 l 35 0 m 490 1130 l 423 1130 l 558 1306 l 684 1306 l 490 1130 "},"Î":{"x_min":-16,"x_max":464,"ha":313,"o":"m 108 0 l -16 0 l 202 1044 l 324 1044 l 108 0 m 464 1130 l 397 1130 l 304 1233 l 159 1130 l 84 1130 l 249 1306 l 366 1306 l 464 1130 "},"e":{"x_min":24,"x_max":564,"ha":636,"o":"m 171 472 l 451 472 q 457 527 455 502 q 460 572 460 552 q 430 675 460 640 q 344 710 401 710 q 238 653 280 710 q 171 472 196 596 m 516 256 q 424 48 495 123 q 250 -26 353 -26 q 82 44 141 -26 q 24 244 24 114 q 47 445 24 336 q 104 628 70 555 q 205 757 144 713 q 348 802 266 802 q 510 741 457 802 q 564 556 564 680 q 558 475 564 520 q 542 379 553 429 l 153 379 q 140 299 144 331 q 137 240 137 266 q 167 117 137 158 q 257 77 197 77 q 357 121 317 77 q 414 256 396 166 l 516 256 "},"»":{"x_min":28,"x_max":599,"ha":681,"o":"m 387 524 l 411 628 l 599 435 l 576 327 l 324 165 l 343 285 l 518 394 l 387 524 m 91 524 l 115 628 l 305 435 l 282 327 l 28 165 l 47 285 l 222 394 l 91 524 "},"∆":{"x_min":-4,"x_max":933,"ha":929,"o":"m 463 855 l 180 121 l 747 121 l 463 855 m 388 999 l 540 999 l 933 0 l -4 0 l 388 999 "},"ò":{"x_min":21,"x_max":603,"ha":676,"o":"m 352 704 q 268 673 303 704 q 205 577 232 642 q 153 403 173 498 q 134 237 134 308 q 167 116 134 157 q 266 75 201 75 q 363 109 325 75 q 427 222 402 144 q 473 400 456 310 q 490 548 490 490 q 454 663 490 623 q 352 704 418 704 m 21 240 q 44 439 21 333 q 105 625 67 544 q 208 758 147 714 q 351 803 269 803 q 538 735 474 803 q 603 540 603 668 q 576 327 603 442 q 512 137 550 212 q 408 15 471 55 q 261 -25 345 -25 q 81 41 141 -25 q 21 240 21 107 m 501 863 l 434 863 l 232 1039 l 363 1039 l 501 863 "},"^":{"x_min":285,"x_max":1103,"ha":1389,"o":"m 757 989 l 1103 611 l 980 611 l 694 896 l 407 611 l 285 611 l 630 989 l 757 989 "},"«":{"x_min":39,"x_max":610,"ha":681,"o":"m 546 266 l 522 165 l 334 354 l 355 463 l 610 626 l 590 506 l 415 396 l 546 266 m 250 266 l 226 165 l 39 354 l 61 463 l 314 626 l 294 506 l 119 396 l 250 266 "},"∙":{"x_min":89,"x_max":267,"ha":346,"o":"m 89 516 q 115 578 89 552 q 178 604 141 604 q 241 578 216 604 q 267 516 267 553 q 240 453 267 479 q 178 428 214 428 q 115 453 141 428 q 89 516 89 479 "},"í":{"x_min":-24,"x_max":402,"ha":283,"o":"m 88 0 l -24 0 l 141 778 l 254 778 l 88 0 m 208 863 l 141 863 l 276 1039 l 402 1039 l 208 863 "},"ˆ":{"x_min":222,"x_max":602,"ha":694,"o":"m 602 863 l 535 863 l 442 966 l 297 863 l 222 863 l 387 1039 l 504 1039 l 602 863 "},"µ":{"x_min":-77,"x_max":723,"ha":781,"o":"m 260 726 l 173 318 q 166 274 168 297 q 163 228 163 252 q 199 124 163 161 q 299 88 234 88 q 440 150 388 88 q 524 362 492 213 l 602 726 l 723 726 l 617 229 q 614 215 616 225 q 602 139 602 156 q 613 103 602 114 q 651 93 624 93 q 663 93 659 93 q 672 94 668 94 l 651 -1 q 617 -6 635 -5 q 578 -8 600 -8 q 512 10 535 -8 q 477 78 489 30 q 401 11 447 33 q 294 -10 355 -10 q 197 8 238 -10 q 120 68 155 27 l 46 -290 l -77 -290 l 138 726 l 260 726 "},"č":{"x_min":26,"x_max":608,"ha":636,"o":"m 529 267 q 448 52 520 129 q 259 -25 376 -25 q 84 41 143 -25 q 26 238 26 107 q 48 438 26 333 q 106 623 70 543 q 207 759 147 716 q 355 803 268 803 q 522 739 465 803 q 579 552 579 676 q 578 531 579 539 q 577 518 578 524 l 472 518 l 472 563 q 441 668 472 632 q 351 704 410 704 q 263 673 299 704 q 204 577 228 643 q 156 403 174 498 q 139 238 139 307 q 171 115 139 156 q 270 75 204 75 q 377 121 339 75 q 427 267 415 168 l 529 267 m 228 1039 l 295 1039 l 387 934 l 532 1039 l 608 1039 l 442 863 l 325 863 l 228 1039 "},"’":{"x_min":139,"x_max":339,"ha":340,"o":"m 209 1044 l 339 1044 l 302 872 q 245 761 288 804 q 139 708 202 718 l 148 766 q 214 815 191 781 q 242 906 236 848 l 180 906 l 209 1044 "},"-":{"x_min":25,"x_max":395,"ha":457,"o":"m 25 342 l 47 452 l 395 452 l 365 342 l 25 342 "},"Q":{"x_min":49,"x_max":779,"ha":829,"o":"m 421 264 l 521 169 q 560 241 542 196 q 597 360 578 286 q 647 603 629 490 q 665 781 665 716 q 617 919 665 870 q 482 969 569 969 q 356 924 409 969 q 267 788 303 880 q 237 690 252 747 q 207 565 222 634 q 179 407 188 475 q 170 284 170 338 q 214 128 170 183 q 342 74 259 74 q 408 80 382 74 q 450 103 434 87 l 356 196 l 421 264 m 527 30 q 443 -13 493 1 q 331 -28 392 -28 q 123 57 198 -28 q 49 294 49 142 q 58 425 49 351 q 88 588 68 499 q 129 742 108 677 q 173 856 149 807 q 304 1015 226 962 q 486 1069 382 1069 q 704 986 629 1069 q 779 745 779 904 q 756 524 779 648 q 694 283 733 399 q 650 177 674 223 q 597 95 626 130 l 687 10 l 617 -57 l 527 30 "},"M":{"x_min":-16,"x_max":1037,"ha":1026,"o":"m 103 0 l -16 0 l 204 1044 l 385 1044 l 434 156 l 849 1044 l 1037 1044 l 824 0 l 707 0 l 925 985 l 458 0 l 349 0 l 294 984 l 103 0 "},"œ":{"x_min":21,"x_max":993,"ha":1068,"o":"m 485 109 q 392 8 450 43 q 260 -26 334 -26 q 82 45 143 -26 q 21 251 21 117 q 44 442 21 339 q 107 630 67 546 q 211 759 146 716 q 364 803 276 803 q 490 771 437 803 q 566 681 542 739 q 660 773 610 744 q 774 803 709 803 q 939 741 885 803 q 993 555 993 680 q 987 469 993 514 q 972 378 982 424 l 582 378 q 569 298 573 330 q 566 239 566 265 q 596 116 566 157 q 686 76 626 76 q 787 121 747 76 q 845 255 827 166 l 945 255 q 852 47 923 121 q 677 -26 782 -26 q 553 7 601 -26 q 485 109 505 41 m 600 471 l 880 471 q 888 533 886 511 q 891 571 891 555 q 861 673 891 639 q 774 707 831 707 q 664 646 708 707 q 600 471 619 586 m 275 76 q 374 111 334 76 q 439 221 415 147 q 478 390 462 292 q 495 553 495 488 q 458 666 495 626 q 355 707 422 707 q 269 675 306 707 q 206 580 233 644 q 155 408 175 503 q 136 239 136 313 q 171 117 136 159 q 275 76 207 76 "},"{":{"x_min":114,"x_max":588,"ha":694,"o":"m 588 900 l 560 900 q 450 869 478 900 q 423 745 423 839 l 423 581 q 392 426 423 472 q 286 359 362 380 q 393 294 363 341 q 423 139 423 248 l 423 -24 q 451 -148 423 -119 q 561 -178 479 -178 l 588 -178 l 588 -280 l 558 -280 q 443 -272 485 -280 q 373 -246 402 -264 q 321 -180 336 -223 q 306 -36 306 -137 l 306 128 q 269 270 306 229 q 143 311 232 311 q 128 310 138 311 q 114 310 118 310 l 114 412 q 129 411 119 412 q 144 410 139 410 q 269 451 232 410 q 306 592 306 492 l 306 758 q 321 901 306 858 q 373 966 336 943 q 447 993 404 985 q 562 1002 490 1002 l 588 1002 l 588 900 "},"¼":{"x_min":110,"x_max":1076,"ha":1101,"o":"m 923 207 l 991 491 l 743 207 l 923 207 m 944 0 l 875 0 l 908 153 l 668 153 l 682 212 l 1008 585 l 1076 585 l 991 207 l 1058 207 l 1044 153 l 978 153 l 944 0 m 288 -24 l 204 -24 l 813 1044 l 898 1044 l 288 -24 m 214 449 l 145 449 l 248 905 q 203 895 226 898 q 156 892 181 892 q 127 892 137 892 q 110 893 117 892 l 120 937 q 227 962 187 940 q 294 1034 266 984 l 350 1034 l 214 449 "},"#":{"x_min":60,"x_max":1009,"ha":1068,"o":"m 657 582 l 481 582 l 418 402 l 595 402 l 657 582 m 627 989 l 517 682 l 690 682 l 802 989 l 913 989 l 804 682 l 1009 682 l 974 582 l 768 582 l 705 404 l 924 404 l 889 304 l 671 304 l 561 -3 l 449 -3 l 558 304 l 383 304 l 273 -3 l 161 -3 l 269 304 l 60 304 l 95 404 l 306 404 l 368 582 l 144 582 l 179 682 l 404 682 l 514 989 l 627 989 "},"Ê":{"x_min":-16,"x_max":659,"ha":664,"o":"m -16 0 l 202 1044 l 659 1044 l 636 942 l 300 942 l 228 597 l 590 597 l 568 494 l 207 494 l 125 106 l 522 106 l 501 0 l -16 0 m 628 1130 l 561 1130 l 468 1233 l 323 1130 l 248 1130 l 413 1306 l 530 1306 l 628 1130 "},")":{"x_min":-104,"x_max":324,"ha":443,"o":"m 123 1044 l 195 1044 q 291 793 258 924 q 324 524 324 661 q 234 93 324 303 q -19 -278 144 -115 l -104 -278 q 128 106 46 -118 q 210 584 210 331 q 187 828 210 710 q 123 1044 165 946 "},"Å":{"x_min":-89,"x_max":626,"ha":714,"o":"m 429 1206 q 449 1160 429 1180 q 494 1140 469 1140 q 541 1160 521 1140 q 562 1206 562 1180 q 541 1253 562 1233 q 494 1273 521 1273 q 448 1253 468 1273 q 429 1206 429 1233 m 365 1206 q 402 1299 365 1261 q 495 1337 440 1337 q 588 1299 550 1337 q 626 1206 626 1261 q 587 1114 626 1152 q 495 1076 549 1076 q 402 1114 440 1076 q 365 1206 365 1152 m 219 400 l 488 400 l 472 963 l 219 400 m 35 0 l -89 0 l 410 1040 l 553 1040 l 615 0 l 501 0 l 490 294 l 170 294 l 35 0 "},"¸":{"x_min":75,"x_max":409,"ha":694,"o":"m 75 -291 l 99 -227 q 171 -244 140 -238 q 220 -250 201 -250 q 290 -234 268 -250 q 312 -183 312 -218 q 284 -141 312 -154 q 191 -129 257 -129 l 177 -129 l 221 0 l 272 0 l 249 -69 l 264 -69 q 372 -97 335 -69 q 409 -181 409 -126 q 364 -284 409 -248 q 239 -321 320 -321 q 172 -314 211 -321 q 75 -291 133 -307 "},"a":{"x_min":-16,"x_max":540,"ha":616,"o":"m 391 398 q 350 381 371 388 q 300 367 329 373 l 238 353 q 127 294 162 336 q 93 177 93 252 q 119 98 93 127 q 191 69 145 69 q 305 122 264 69 q 376 325 346 176 l 391 398 m 353 95 q 270 5 312 31 q 169 -21 227 -21 q 32 32 81 -21 q -16 184 -16 86 q 35 350 -16 290 q 205 436 87 409 l 334 467 q 409 517 387 479 q 431 629 431 555 q 401 687 431 665 q 321 710 372 710 q 228 677 259 710 q 194 577 198 645 l 92 577 q 159 741 98 683 q 327 799 220 799 q 486 754 432 799 q 540 625 540 710 q 536 583 540 606 q 524 521 533 560 l 453 167 q 447 134 449 146 q 445 114 445 121 q 460 82 445 91 q 514 74 475 74 l 501 0 q 475 -9 488 -6 q 444 -12 462 -12 q 374 7 397 -12 q 350 69 350 27 q 352 88 350 74 q 353 95 353 93 "},"=":{"x_min":172,"x_max":984,"ha":1157,"o":"m 984 326 l 984 232 l 172 232 l 172 326 l 984 326 m 984 596 l 984 501 l 172 501 l 172 596 l 984 596 "},"˚":{"x_min":310,"x_max":587,"ha":694,"o":"m 382 993 q 401 947 382 966 q 447 928 420 928 q 495 947 475 928 q 515 993 515 966 q 495 1041 515 1022 q 447 1061 476 1061 q 400 1041 419 1061 q 382 993 382 1022 m 310 994 q 350 1092 310 1052 q 449 1133 391 1133 q 546 1092 505 1133 q 587 994 587 1051 q 546 896 587 937 q 449 856 506 856 q 350 896 390 856 q 310 994 310 936 "},"ú":{"x_min":5,"x_max":629,"ha":656,"o":"m 125 213 q 118 172 120 190 q 116 145 116 154 q 139 89 116 110 q 203 68 163 68 q 308 101 257 68 q 395 196 358 135 l 519 778 l 629 778 l 463 0 l 358 0 l 378 87 q 276 8 329 34 q 166 -18 224 -18 q 47 18 89 -18 q 5 122 5 55 q 7 165 5 143 q 15 209 9 186 l 135 778 l 244 778 l 125 213 m 387 863 l 320 863 l 455 1039 l 581 1039 l 387 863 "},"¯":{"x_min":261,"x_max":615,"ha":694,"o":"m 261 900 l 280 986 l 615 986 l 597 900 l 261 900 "},"Z":{"x_min":-46,"x_max":667,"ha":623,"o":"m 529 0 l -46 0 l -26 104 l 517 946 l 95 946 l 119 1044 l 667 1044 l 648 946 l 109 104 l 554 104 l 529 0 "},"u":{"x_min":5,"x_max":629,"ha":656,"o":"m 125 213 q 118 172 120 190 q 116 145 116 154 q 139 89 116 110 q 203 68 163 68 q 308 101 257 68 q 395 196 358 135 l 519 778 l 629 778 l 463 0 l 358 0 l 378 87 q 276 8 329 34 q 166 -18 224 -18 q 47 18 89 -18 q 5 122 5 55 q 7 165 5 143 q 15 209 9 186 l 135 778 l 244 778 l 125 213 "},"k":{"x_min":-22,"x_max":631,"ha":579,"o":"m -22 0 l 194 1042 l 307 1042 l 173 429 l 494 778 l 631 778 l 339 479 l 489 0 l 373 0 l 255 398 l 144 284 l 86 0 l -22 0 "},"Ù":{"x_min":47,"x_max":823,"ha":806,"o":"m 176 336 q 175 327 176 332 q 162 222 162 260 q 208 111 162 148 q 349 75 255 75 q 471 117 429 75 q 537 268 514 160 l 702 1044 l 823 1044 l 663 285 q 552 46 628 118 q 340 -25 477 -25 q 122 37 197 -25 q 47 216 47 99 q 52 290 47 243 q 68 388 58 338 l 203 1044 l 324 1044 l 176 336 m 632 1130 l 565 1130 l 363 1306 l 494 1306 l 632 1130 "},"¢":{"x_min":56,"x_max":610,"ha":692,"o":"m 560 289 q 479 71 551 147 q 284 -4 408 -4 l 246 -183 l 169 -183 l 207 5 q 93 89 130 27 q 56 261 56 152 q 90 515 56 385 q 172 716 124 645 q 262 799 211 773 q 382 828 313 826 l 413 970 l 490 970 l 460 819 q 571 738 532 800 q 610 579 610 676 q 609 556 610 564 q 608 542 609 548 l 504 542 q 504 555 504 546 q 505 568 505 564 q 474 688 505 648 q 380 729 443 729 q 292 698 328 729 q 232 601 256 667 q 186 427 204 522 q 169 261 169 332 q 201 137 169 178 q 300 97 234 97 q 408 143 369 97 q 458 289 446 189 l 560 289 "},"Ş":{"x_min":21,"x_max":719,"ha":750,"o":"m 23 320 l 135 320 l 135 303 q 178 132 135 186 q 315 78 222 78 q 475 137 417 78 q 534 299 534 197 q 355 489 534 418 q 309 508 325 501 q 170 602 211 547 q 129 747 129 658 q 215 979 129 891 q 443 1068 302 1068 q 644 999 569 1068 q 719 811 719 930 q 718 792 719 799 q 716 780 718 786 l 606 780 l 606 793 q 563 920 606 875 q 443 965 521 965 q 301 909 354 965 q 248 764 248 854 q 425 586 248 660 q 445 577 438 580 q 615 466 575 522 q 655 314 655 410 q 559 68 655 162 q 310 -25 464 -25 q 97 53 173 -25 q 21 271 21 131 q 23 315 21 287 q 23 320 23 318 m 103 -291 l 127 -227 q 199 -244 168 -238 q 248 -250 229 -250 q 318 -234 296 -250 q 340 -183 340 -218 q 312 -141 340 -154 q 219 -129 285 -129 l 205 -129 l 249 0 l 300 0 l 277 -69 l 292 -69 q 400 -97 363 -69 q 437 -181 437 -126 q 392 -284 437 -248 q 267 -321 348 -321 q 200 -314 239 -321 q 103 -291 161 -307 "},"é":{"x_min":24,"x_max":564,"ha":636,"o":"m 171 472 l 451 472 q 457 527 455 502 q 460 572 460 552 q 430 675 460 640 q 344 710 401 710 q 238 653 280 710 q 171 472 196 596 m 516 256 q 424 48 495 123 q 250 -26 353 -26 q 82 44 141 -26 q 24 244 24 114 q 47 445 24 336 q 104 628 70 555 q 205 757 144 713 q 348 802 266 802 q 510 741 457 802 q 564 556 564 680 q 558 475 564 520 q 542 379 553 429 l 153 379 q 140 299 144 331 q 137 240 137 266 q 167 117 137 158 q 257 77 197 77 q 357 121 317 77 q 414 256 396 166 l 516 256 m 362 863 l 295 863 l 430 1039 l 556 1039 l 362 863 "},"B":{"x_min":-14,"x_max":718,"ha":775,"o":"m 126 100 l 284 100 q 465 157 408 100 q 523 340 523 215 q 473 462 523 426 q 279 498 424 498 l 209 498 l 126 100 m 230 598 l 291 598 q 531 644 467 598 q 595 802 595 690 q 556 913 595 880 q 424 947 517 947 l 302 947 l 230 598 m -14 0 l 202 1044 l 434 1044 q 649 986 580 1044 q 718 806 718 928 q 662 626 718 697 q 506 538 606 556 q 612 456 576 512 q 648 320 648 401 q 550 82 648 165 q 270 0 453 0 l -14 0 "},"…":{"x_min":62,"x_max":1149,"ha":1389,"o":"m 191 0 l 62 0 l 91 139 l 222 139 l 191 0 m 654 0 l 525 0 l 554 139 l 685 139 l 654 0 m 1118 0 l 989 0 l 1018 139 l 1149 139 l 1118 0 "},"H":{"x_min":-14,"x_max":820,"ha":807,"o":"m 105 0 l -14 0 l 202 1044 l 321 1044 l 233 612 l 610 612 l 699 1044 l 820 1044 l 602 0 l 483 0 l 588 503 l 210 503 l 105 0 "},"î":{"x_min":-24,"x_max":403,"ha":283,"o":"m 88 0 l -24 0 l 141 778 l 254 778 l 88 0 m 403 863 l 336 863 l 243 966 l 98 863 l 23 863 l 188 1039 l 305 1039 l 403 863 "},"−":{"x_min":172,"x_max":984,"ha":1157,"o":"m 984 463 l 984 367 l 172 367 l 172 463 l 984 463 "},"≠":{"x_min":172,"x_max":984,"ha":1157,"o":"m 889 754 l 763 595 l 984 595 l 984 503 l 702 503 l 563 325 l 984 325 l 984 233 l 503 233 l 334 18 l 263 75 l 388 233 l 172 233 l 172 325 l 448 325 l 586 503 l 172 503 l 172 595 l 647 595 l 818 809 l 889 754 "},"¥":{"x_min":14,"x_max":769,"ha":692,"o":"m 200 0 l 286 433 l 14 433 l 29 501 l 265 501 l 222 616 l 53 616 l 68 684 l 196 684 l 61 1032 l 187 1032 l 359 536 l 635 1032 l 769 1032 l 557 684 l 701 684 l 688 616 l 513 616 l 446 501 l 663 501 l 648 433 l 406 433 l 314 0 l 200 0 "},"U":{"x_min":47,"x_max":823,"ha":806,"o":"m 176 336 q 175 327 176 332 q 162 222 162 260 q 208 111 162 148 q 349 75 255 75 q 471 117 429 75 q 537 268 514 160 l 702 1044 l 823 1044 l 663 285 q 552 46 628 118 q 340 -25 477 -25 q 122 37 197 -25 q 47 216 47 99 q 52 290 47 243 q 68 388 58 338 l 203 1044 l 324 1044 l 176 336 "},"Ñ":{"x_min":-16,"x_max":820,"ha":807,"o":"m 104 0 l -16 0 l 202 1044 l 357 1044 l 524 134 l 700 1044 l 820 1044 l 602 0 l 443 0 l 280 919 l 104 0 m 752 1290 q 698 1194 730 1225 q 622 1162 666 1162 q 598 1165 612 1162 q 566 1173 585 1168 l 532 1185 q 511 1190 521 1188 q 493 1191 502 1191 q 455 1179 471 1191 q 433 1144 439 1166 l 370 1143 q 419 1240 386 1206 q 497 1275 452 1275 q 520 1273 507 1275 q 547 1267 532 1271 l 585 1255 q 613 1247 604 1249 q 628 1246 621 1246 q 662 1256 648 1246 q 688 1290 676 1267 l 752 1290 "},"F":{"x_min":-14,"x_max":659,"ha":616,"o":"m 659 1044 l 638 938 l 300 938 l 228 597 l 560 597 l 539 494 l 207 494 l 105 0 l -14 0 l 202 1044 l 659 1044 "},"*":{"x_min":144,"x_max":671,"ha":694,"o":"m 407 716 l 287 540 l 207 596 l 342 762 l 144 817 l 173 910 l 365 840 l 365 1044 l 450 1044 l 450 840 l 638 907 l 671 818 l 471 762 l 606 596 l 529 540 l 407 716 "},"†":{"x_min":71,"x_max":646,"ha":694,"o":"m 151 -219 l 297 608 l 71 608 l 86 697 l 313 697 l 375 1044 l 481 1044 l 419 697 l 646 697 l 631 608 l 404 608 l 258 -219 l 151 -219 "},"∕":{"x_min":-232,"x_max":462,"ha":231,"o":"m -147 -24 l -232 -24 l 377 1044 l 462 1044 l -147 -24 "},"°":{"x_min":33,"x_max":423,"ha":457,"o":"m 359 793 q 321 885 359 847 q 229 923 283 923 q 135 885 174 923 q 97 793 97 847 q 135 699 97 738 q 229 661 174 661 q 321 699 283 661 q 359 793 359 738 m 228 987 q 365 929 308 987 q 423 790 423 872 q 366 653 423 710 q 227 597 309 597 q 89 653 145 597 q 33 790 33 709 q 90 929 33 872 q 228 987 147 987 "},"å":{"x_min":-16,"x_max":540,"ha":616,"o":"m 352 95 q 269 5 311 31 q 168 -21 227 -21 q 32 32 81 -21 q -16 184 -16 86 q 35 350 -16 290 q 205 436 87 409 l 332 467 q 409 517 387 479 q 431 629 431 555 q 401 687 431 665 q 321 710 372 710 q 228 677 259 710 q 194 577 198 645 l 92 577 q 159 741 98 683 q 327 799 220 799 q 486 754 432 799 q 540 625 540 710 q 536 583 540 606 q 524 521 533 560 l 454 167 q 448 134 450 146 q 447 114 447 121 q 461 82 447 91 q 515 74 476 74 l 502 0 q 475 -9 489 -6 q 444 -12 462 -12 q 372 7 396 -12 q 349 69 349 27 q 351 88 349 74 q 352 95 352 93 m 390 398 q 349 381 370 388 q 298 367 328 373 l 238 353 q 127 294 162 336 q 93 177 93 252 q 119 98 93 127 q 191 69 145 69 q 304 122 263 69 q 376 325 345 176 l 390 398 m 306 967 q 326 920 306 941 q 373 900 347 900 q 421 920 400 900 q 443 967 443 941 q 422 1014 443 994 q 373 1034 401 1034 q 326 1014 346 1034 q 306 967 306 994 m 244 967 q 282 1059 244 1021 q 374 1098 320 1098 q 467 1060 429 1098 q 505 967 505 1022 q 466 874 505 913 q 374 836 428 836 q 282 874 320 836 q 244 967 244 913 "},"0":{"x_min":33,"x_max":658,"ha":692,"o":"m 414 944 q 307 894 349 944 q 231 725 264 844 q 170 455 192 582 q 148 250 148 327 q 180 119 148 162 q 278 76 213 76 q 377 120 335 76 q 449 261 418 164 q 478 367 463 305 q 508 501 493 429 q 537 672 527 602 q 547 783 547 743 q 512 902 547 860 q 414 944 477 944 m 33 252 q 44 408 33 321 q 77 597 55 496 q 113 736 94 676 q 153 845 131 797 q 266 993 199 942 q 417 1044 333 1044 q 595 969 533 1044 q 658 755 658 894 q 648 635 658 703 q 618 466 639 567 q 580 304 599 372 q 540 185 561 235 q 426 29 495 82 q 268 -24 358 -24 q 93 47 154 -24 q 33 252 33 118 "},"":{"x_min":77,"x_max":1021,"ha":1097,"o":"m 567 824 q 566 834 566 828 q 565 849 565 839 q 630 1005 565 934 q 790 1094 694 1077 q 791 1079 791 1087 q 791 1052 791 1070 q 721 893 791 963 q 583 823 651 823 l 578 823 q 573 824 576 823 q 567 824 570 824 m 1021 273 q 881 40 943 105 q 743 -24 820 -24 q 654 -1 709 -24 q 571 20 599 20 q 482 -1 540 20 q 396 -24 424 -24 q 309 5 353 -24 q 221 95 265 35 q 114 295 152 190 q 77 499 77 401 q 161 741 77 648 q 380 835 246 835 q 485 811 426 835 q 569 788 544 788 q 652 812 592 788 q 755 836 711 836 q 889 809 830 836 q 999 725 949 782 q 896 626 929 680 q 863 502 863 571 q 903 366 863 425 q 1021 273 944 307 "},"”":{"x_min":139,"x_max":607,"ha":610,"o":"m 479 1044 l 607 1044 l 570 872 q 514 761 556 804 q 407 708 471 718 l 416 766 q 482 814 459 781 q 510 906 504 847 l 450 906 l 479 1044 m 209 1044 l 339 1044 l 302 872 q 245 761 288 804 q 139 708 202 718 l 148 766 q 214 815 191 781 q 242 906 236 848 l 180 906 l 209 1044 "},"ö":{"x_min":21,"x_max":603,"ha":676,"o":"m 352 704 q 268 673 303 704 q 205 577 232 642 q 153 403 173 498 q 134 237 134 308 q 167 116 134 157 q 266 75 201 75 q 363 109 325 75 q 427 222 402 144 q 473 400 456 310 q 490 548 490 490 q 454 663 490 623 q 352 704 418 704 m 21 240 q 44 439 21 333 q 105 625 67 544 q 208 758 147 714 q 351 803 269 803 q 538 735 474 803 q 603 540 603 668 q 576 327 603 442 q 512 137 550 212 q 408 15 471 55 q 261 -25 345 -25 q 81 41 141 -25 q 21 240 21 107 m 460 879 l 485 1005 l 598 1005 l 571 879 l 460 879 m 243 879 l 269 1005 l 381 1005 l 354 879 l 243 879 "},"Õ":{"x_min":50,"x_max":780,"ha":829,"o":"m 484 969 q 357 924 410 969 q 268 787 304 880 q 236 687 252 744 q 206 564 220 630 q 177 400 186 469 q 169 274 169 330 q 216 127 169 179 q 350 76 264 76 q 473 118 422 76 q 559 248 524 160 q 591 346 575 287 q 623 478 608 404 q 654 655 643 575 q 665 781 665 735 q 617 919 665 869 q 484 969 569 969 m 50 298 q 59 430 50 356 q 88 589 69 504 q 129 738 107 672 q 176 856 151 805 q 306 1016 229 963 q 487 1069 384 1069 q 705 986 630 1069 q 780 745 780 903 q 770 614 780 687 q 741 456 760 542 q 701 309 723 377 q 655 190 679 241 q 524 29 603 82 q 341 -24 446 -24 q 124 58 198 -24 q 50 298 50 140 m 754 1290 q 700 1194 732 1225 q 624 1162 668 1162 q 600 1165 614 1162 q 568 1173 587 1168 l 534 1185 q 513 1190 523 1188 q 495 1191 504 1191 q 457 1179 473 1191 q 435 1144 441 1166 l 372 1143 q 421 1240 388 1206 q 499 1275 454 1275 q 522 1273 509 1275 q 549 1267 534 1271 l 587 1255 q 615 1247 606 1249 q 630 1246 623 1246 q 664 1256 650 1246 q 690 1290 678 1267 l 754 1290 "},"ć":{"x_min":26,"x_max":579,"ha":636,"o":"m 529 267 q 448 52 520 129 q 259 -25 376 -25 q 84 41 143 -25 q 26 238 26 107 q 48 438 26 333 q 106 623 70 543 q 207 759 147 716 q 355 803 268 803 q 522 739 465 803 q 579 552 579 676 q 578 531 579 539 q 577 518 578 524 l 472 518 l 472 563 q 441 668 472 632 q 351 704 410 704 q 263 673 299 704 q 204 577 228 643 q 156 403 174 498 q 139 238 139 307 q 171 115 139 156 q 270 75 204 75 q 377 121 339 75 q 427 267 415 168 l 529 267 m 368 863 l 301 863 l 436 1039 l 562 1039 l 368 863 "},"þ":{"x_min":-79,"x_max":599,"ha":676,"o":"m 372 705 q 275 666 316 705 q 207 548 235 627 q 164 380 181 470 q 148 233 148 291 q 180 118 148 158 q 271 78 212 78 q 356 111 319 78 q 421 213 393 145 q 466 377 448 282 q 485 549 485 472 q 455 664 485 623 q 372 705 426 705 m 199 1042 l 309 1042 l 240 716 q 313 777 269 755 q 404 800 357 800 q 548 728 497 800 q 599 524 599 656 q 508 135 599 287 q 277 -16 418 -16 q 173 17 217 -16 q 110 109 128 51 l 30 -264 l -79 -264 l 199 1042 "},"]":{"x_min":-92,"x_max":402,"ha":443,"o":"m 175 1044 l 402 1044 l 124 -263 l -92 -263 l -81 -188 l 31 -188 l 276 969 l 156 969 l 175 1044 "},"8":{"x_min":28,"x_max":664,"ha":692,"o":"m 322 513 q 196 437 248 513 q 145 249 145 362 q 185 121 145 167 q 298 76 226 76 q 430 154 377 76 q 484 348 484 233 q 441 469 484 426 q 322 513 399 513 m 419 950 q 309 893 352 950 q 266 750 266 836 q 300 641 266 680 q 396 603 335 603 q 507 661 464 603 q 550 812 550 719 q 515 913 550 876 q 419 950 480 950 m 248 579 q 177 659 198 616 q 156 765 156 702 q 229 968 156 890 q 421 1046 302 1046 q 598 980 533 1046 q 664 803 664 915 q 618 632 664 698 q 482 543 572 567 q 572 460 541 517 q 603 319 603 403 q 516 73 603 170 q 295 -24 430 -24 q 98 49 168 -24 q 28 258 28 123 q 89 473 28 383 q 248 579 151 563 "},"R":{"x_min":-14,"x_max":758,"ha":771,"o":"m 225 572 l 334 572 q 580 621 517 572 q 643 793 643 670 q 600 912 643 877 q 446 947 557 947 l 302 947 l 225 572 m -14 0 l 204 1044 l 451 1044 q 685 983 613 1044 q 758 789 758 923 q 699 599 758 671 q 534 515 641 527 q 623 459 590 504 q 657 351 657 415 q 654 309 657 332 q 644 243 651 285 l 618 101 q 616 92 618 98 q 614 69 614 77 q 619 39 614 52 q 638 10 625 25 l 638 0 l 503 0 q 495 31 498 15 q 493 66 493 47 q 495 92 493 76 q 501 132 497 107 l 529 273 q 535 314 533 294 q 538 349 538 334 q 497 445 538 418 q 347 473 457 473 l 204 473 l 105 0 l -14 0 "},"o":{"x_min":21,"x_max":603,"ha":676,"o":"m 352 704 q 268 673 303 704 q 205 577 232 642 q 153 403 173 498 q 134 237 134 308 q 167 116 134 157 q 266 75 201 75 q 363 109 325 75 q 427 222 402 144 q 473 400 456 310 q 490 548 490 490 q 454 663 490 623 q 352 704 418 704 m 21 240 q 44 439 21 333 q 105 625 67 544 q 208 758 147 714 q 351 803 269 803 q 538 735 474 803 q 603 540 603 668 q 576 327 603 442 q 512 137 550 212 q 408 15 471 55 q 261 -25 345 -25 q 81 41 141 -25 q 21 240 21 107 "},"5":{"x_min":22,"x_max":673,"ha":692,"o":"m 185 503 l 90 503 l 243 1029 l 673 1029 l 651 929 l 316 929 l 231 636 q 297 669 262 658 q 373 681 333 681 q 540 606 479 681 q 602 401 602 531 q 510 92 602 212 q 276 -28 419 -28 q 90 39 158 -28 q 22 222 22 106 q 23 250 22 235 q 29 286 25 265 l 137 286 q 136 266 137 278 q 135 234 135 242 q 171 118 135 160 q 271 76 208 76 q 426 169 365 76 q 488 405 488 263 q 448 540 488 490 q 342 591 408 591 q 251 566 295 591 q 185 503 206 541 "},"õ":{"x_min":21,"x_max":613,"ha":676,"o":"m 352 704 q 268 673 303 704 q 205 577 232 642 q 153 403 173 498 q 134 237 134 308 q 167 116 134 157 q 266 75 201 75 q 363 109 325 75 q 427 222 402 144 q 473 400 456 310 q 490 548 490 490 q 454 663 490 623 q 352 704 418 704 m 21 240 q 44 439 21 333 q 105 625 67 544 q 208 758 147 714 q 351 803 269 803 q 538 735 474 803 q 603 540 603 668 q 576 327 603 442 q 512 137 550 212 q 408 15 471 55 q 261 -25 345 -25 q 81 41 141 -25 q 21 240 21 107 m 613 1023 q 559 927 591 958 q 483 895 527 895 q 459 898 473 895 q 427 906 446 901 l 393 918 q 372 923 382 921 q 354 924 363 924 q 316 912 332 924 q 294 877 300 899 l 231 876 q 280 973 247 939 q 358 1008 313 1008 q 381 1006 368 1008 q 408 1000 393 1004 l 446 988 q 474 980 465 982 q 489 979 482 979 q 523 989 509 979 q 549 1023 537 1000 l 613 1023 "},",":{"x_min":-29,"x_max":171,"ha":346,"o":"m 42 138 l 171 138 l 135 -33 q 77 -144 120 -101 q -29 -198 34 -187 l -19 -139 q 46 -91 23 -124 q 74 0 68 -58 l 13 0 l 42 138 "},"d":{"x_min":22,"x_max":698,"ha":672,"o":"m 248 76 q 344 113 303 76 q 414 230 385 151 q 455 385 439 297 q 471 542 471 473 q 439 661 471 620 q 347 702 407 702 q 263 668 300 702 q 198 566 225 634 q 153 405 171 498 q 135 241 135 311 q 164 118 135 161 q 248 76 193 76 m 391 78 q 313 7 359 33 q 215 -18 267 -18 q 72 52 123 -18 q 22 251 22 122 q 48 469 22 357 q 117 654 75 581 q 216 759 158 722 q 343 796 274 796 q 445 763 402 796 q 511 667 488 730 l 590 1042 l 698 1042 l 477 0 l 372 0 l 391 78 "},"\"":{"x_min":61,"x_max":355,"ha":416,"o":"m 355 974 l 355 598 l 261 598 l 261 974 l 355 974 m 155 974 l 155 598 l 61 598 l 61 974 l 155 974 "},"˙":{"x_min":366,"x_max":512,"ha":694,"o":"m 366 876 l 393 1008 l 512 1008 l 482 876 l 366 876 "},"ê":{"x_min":24,"x_max":564,"ha":636,"o":"m 171 472 l 451 472 q 457 527 455 502 q 460 572 460 552 q 430 675 460 640 q 344 710 401 710 q 238 653 280 710 q 171 472 196 596 m 516 256 q 424 48 495 123 q 250 -26 353 -26 q 82 44 141 -26 q 24 244 24 114 q 47 445 24 336 q 104 628 70 555 q 205 757 144 713 q 348 802 266 802 q 510 741 457 802 q 564 556 564 680 q 558 475 564 520 q 542 379 553 429 l 153 379 q 140 299 144 331 q 137 240 137 266 q 167 117 137 158 q 257 77 197 77 q 357 121 317 77 q 414 256 396 166 l 516 256 m 557 863 l 490 863 l 397 966 l 252 863 l 177 863 l 342 1039 l 459 1039 l 557 863 "},"„":{"x_min":-35,"x_max":433,"ha":610,"o":"m 305 138 l 433 138 l 396 -33 q 340 -144 382 -101 q 233 -198 297 -187 l 242 -139 q 308 -91 285 -124 q 336 0 330 -58 l 276 0 l 305 138 m 35 138 l 165 138 l 128 -33 q 71 -144 114 -101 q -35 -198 28 -187 l -25 -139 q 40 -90 17 -124 q 68 0 62 -57 l 6 0 l 35 138 "},"Â":{"x_min":-89,"x_max":685,"ha":714,"o":"m 219 400 l 488 400 l 473 963 l 219 400 m 35 0 l -89 0 l 412 1044 l 555 1044 l 615 0 l 502 0 l 491 294 l 170 294 l 35 0 m 685 1130 l 618 1130 l 525 1233 l 380 1130 l 305 1130 l 470 1306 l 587 1306 l 685 1130 "},"Í":{"x_min":-16,"x_max":463,"ha":313,"o":"m 108 0 l -16 0 l 202 1044 l 324 1044 l 108 0 m 269 1130 l 202 1130 l 337 1306 l 463 1306 l 269 1130 "},"´":{"x_min":340,"x_max":601,"ha":694,"o":"m 407 863 l 340 863 l 475 1039 l 601 1039 l 407 863 "},"Ú":{"x_min":47,"x_max":823,"ha":806,"o":"m 176 336 q 175 327 176 332 q 162 222 162 260 q 208 111 162 148 q 349 75 255 75 q 471 117 429 75 q 537 268 514 160 l 702 1044 l 823 1044 l 663 285 q 552 46 628 118 q 340 -25 477 -25 q 122 37 197 -25 q 47 216 47 99 q 52 290 47 243 q 68 388 58 338 l 203 1044 l 324 1044 l 176 336 m 520 1130 l 453 1130 l 588 1306 l 714 1306 l 520 1130 "},"Ý":{"x_min":29,"x_max":744,"ha":636,"o":"m 169 0 l 255 420 l 29 1044 l 156 1044 l 325 543 l 609 1044 l 744 1044 l 378 434 l 287 0 l 169 0 m 432 1130 l 365 1130 l 500 1306 l 626 1306 l 432 1130 "},"Ω":{"x_min":53.109375,"x_max":1008.53125,"ha":1061,"o":"m 1008 121 l 1008 0 l 601 0 l 601 121 q 788 299 721 186 q 856 548 856 411 q 766 809 856 711 q 530 908 676 908 q 293 809 383 908 q 204 548 204 710 q 271 299 204 411 q 460 121 339 186 l 460 0 l 53 0 l 53 121 l 269 121 q 113 316 162 215 q 64 542 64 417 q 193 891 64 757 q 530 1025 323 1025 q 866 891 735 1025 q 997 548 997 758 q 948 316 997 417 q 791 121 900 216 l 1008 121 "},"Ö":{"x_min":50,"x_max":780,"ha":829,"o":"m 484 969 q 357 924 410 969 q 268 787 304 880 q 236 687 252 744 q 206 564 220 630 q 177 400 186 469 q 169 274 169 330 q 216 127 169 179 q 350 76 264 76 q 473 118 422 76 q 559 248 524 160 q 591 346 575 287 q 623 478 608 404 q 654 655 643 575 q 665 781 665 735 q 617 919 665 869 q 484 969 569 969 m 50 298 q 59 430 50 356 q 88 589 69 504 q 129 738 107 672 q 176 856 151 805 q 306 1016 229 963 q 487 1069 384 1069 q 705 986 630 1069 q 780 745 780 903 q 770 614 780 687 q 741 456 760 542 q 701 309 723 377 q 655 190 679 241 q 524 29 603 82 q 341 -24 446 -24 q 124 58 198 -24 q 50 298 50 140 m 601 1146 l 626 1272 l 739 1272 l 712 1146 l 601 1146 m 384 1146 l 410 1272 l 522 1272 l 495 1146 l 384 1146 "},"z":{"x_min":-78,"x_max":557,"ha":539,"o":"m 394 0 l -78 0 l -58 95 l 403 684 l 86 684 l 111 778 l 557 778 l 538 689 l 78 100 l 415 100 l 394 0 "},"™":{"x_min":164,"x_max":952,"ha":1157,"o":"m 652 989 l 754 727 l 850 989 l 952 989 l 952 624 l 886 624 l 886 925 l 773 624 l 735 624 l 617 925 l 617 624 l 551 624 l 551 989 l 652 989 m 471 989 l 471 935 l 354 935 l 354 624 l 281 624 l 281 935 l 164 935 l 164 989 l 471 989 "},"ã":{"x_min":-16,"x_max":569,"ha":616,"o":"m 391 398 q 350 381 371 388 q 300 367 329 373 l 238 353 q 127 294 162 336 q 93 177 93 252 q 119 98 93 127 q 191 69 145 69 q 305 122 264 69 q 376 325 346 176 l 391 398 m 353 95 q 270 5 312 31 q 169 -21 227 -21 q 32 32 81 -21 q -16 184 -16 86 q 35 350 -16 290 q 205 436 87 409 l 334 467 q 409 517 387 479 q 431 629 431 555 q 401 687 431 665 q 321 710 372 710 q 228 677 259 710 q 194 577 198 645 l 92 577 q 159 741 98 683 q 327 799 220 799 q 486 754 432 799 q 540 625 540 710 q 536 583 540 606 q 524 521 533 560 l 453 167 q 447 134 449 146 q 445 114 445 121 q 460 82 445 91 q 514 74 475 74 l 501 0 q 475 -9 488 -6 q 444 -12 462 -12 q 374 7 397 -12 q 350 69 350 27 q 352 88 350 74 q 353 95 353 93 m 569 1023 q 515 927 547 958 q 439 895 483 895 q 415 898 429 895 q 383 906 402 901 l 349 918 q 328 923 338 921 q 310 924 319 924 q 272 912 288 924 q 250 877 256 899 l 187 876 q 236 973 203 939 q 314 1008 269 1008 q 337 1006 324 1008 q 364 1000 349 1004 l 402 988 q 430 980 421 982 q 445 979 438 979 q 479 989 465 979 q 505 1023 493 1000 l 569 1023 "},"æ":{"x_min":-11,"x_max":925,"ha":999,"o":"m 413 98 q 312 3 371 36 q 184 -30 253 -30 q 40 25 92 -30 q -11 179 -11 81 q 45 346 -11 288 q 275 443 102 404 l 284 445 q 445 608 445 481 q 416 676 445 651 q 336 702 387 702 q 240 672 271 702 q 200 573 209 642 l 94 573 q 165 735 102 680 q 342 791 228 791 q 459 768 412 791 q 523 705 506 746 q 601 776 555 753 q 707 800 646 800 q 871 739 818 800 q 925 554 925 679 q 919 473 925 518 q 902 377 913 427 l 513 377 q 500 298 504 334 q 496 231 496 262 q 527 115 496 154 q 618 76 558 76 q 718 120 679 76 q 776 254 758 165 l 876 254 q 784 47 854 120 q 609 -26 715 -26 q 485 4 532 -26 q 413 98 438 34 m 531 470 l 812 470 q 819 532 817 510 q 822 570 822 555 q 792 672 822 637 q 705 708 762 708 q 599 651 640 708 q 531 470 557 594 m 402 402 q 278 353 368 374 q 219 338 238 344 q 121 279 147 316 q 95 170 95 242 q 123 92 95 122 q 198 63 151 63 q 335 148 283 63 q 402 402 386 234 "},"É":{"x_min":-16,"x_max":659,"ha":664,"o":"m -16 0 l 202 1044 l 659 1044 l 636 942 l 300 942 l 228 597 l 590 597 l 568 494 l 207 494 l 125 106 l 522 106 l 501 0 l -16 0 m 433 1130 l 366 1130 l 501 1306 l 627 1306 l 433 1130 "},"~":{"x_min":121,"x_max":1038,"ha":1157,"o":"m 1038 417 q 903 344 967 367 q 774 321 838 321 q 600 360 711 321 q 577 369 585 366 l 567 372 q 382 414 447 414 q 263 388 325 414 q 121 307 201 363 l 121 412 q 258 485 192 461 q 383 510 323 510 q 469 500 425 510 q 580 467 514 491 q 612 455 591 464 q 775 417 720 417 q 897 442 835 417 q 1038 523 959 467 l 1038 417 "},"³":{"x_min":12,"x_max":439,"ha":457,"o":"m 18 602 l 88 601 q 87 586 87 593 q 87 572 87 579 q 111 483 87 511 q 186 455 135 455 q 279 497 243 455 q 315 606 315 540 q 280 681 315 655 q 179 707 245 707 l 176 707 l 187 761 l 201 761 q 322 793 282 761 q 363 892 363 826 q 340 954 363 933 q 276 976 318 976 q 208 949 235 976 q 171 873 181 923 l 102 873 q 157 992 110 949 q 278 1036 205 1036 q 395 996 352 1036 q 439 889 439 956 q 402 783 439 827 q 306 727 366 739 q 371 673 350 704 q 392 598 392 642 q 334 452 392 510 q 189 394 277 394 q 59 437 107 394 q 12 555 12 481 q 13 579 12 568 q 18 602 14 590 "},"¡":{"x_min":5,"x_max":360,"ha":359,"o":"m 274 783 l 202 302 l 134 0 l 5 0 l 76 316 l 214 783 l 274 783 m 335 909 l 205 909 l 232 1044 l 360 1044 l 335 909 "},"[":{"x_min":-10,"x_max":484,"ha":443,"o":"m 215 -263 l -10 -263 l 267 1044 l 484 1044 l 472 969 l 360 969 l 116 -188 l 235 -188 l 215 -263 "},"%":{"x_min":64,"x_max":906,"ha":970,"o":"m 715 427 q 643 386 664 427 q 622 242 622 346 q 644 121 622 159 q 715 83 667 83 q 786 126 763 83 q 810 262 810 170 q 786 386 810 345 q 715 427 763 427 m 526 259 q 572 447 526 385 q 713 510 619 510 q 858 448 811 510 q 906 259 906 387 q 857 66 906 133 q 716 0 808 0 q 572 63 618 0 q 526 259 526 126 m 252 949 q 180 909 201 949 q 160 764 160 869 q 181 643 160 681 q 252 605 203 605 q 324 648 301 605 q 348 784 348 692 q 324 908 348 867 q 252 949 300 949 m 64 781 q 110 969 64 907 q 251 1032 157 1032 q 396 970 349 1032 q 444 783 444 909 q 394 589 444 656 q 252 522 345 522 q 109 584 155 522 q 64 781 64 647 m 206 -19 l 679 1050 l 757 1050 l 287 -19 l 206 -19 "},"P":{"x_min":-14,"x_max":731,"ha":736,"o":"m 220 548 l 326 548 q 554 600 495 548 q 614 784 614 653 q 573 910 614 873 q 431 947 533 947 l 300 947 l 220 548 m 105 0 l -14 0 l 202 1044 l 437 1044 q 662 980 593 1044 q 731 780 731 917 q 637 530 731 611 q 346 450 543 450 l 199 450 l 105 0 "},"∏":{"x_min":106,"x_max":945,"ha":1051,"o":"m 106 999 l 945 999 l 945 -266 l 782 -266 l 782 860 l 269 860 l 269 -266 l 106 -266 l 106 999 "},"_":{"x_min":0,"x_max":694,"ha":694,"o":"m 694 -231 l 694 -328 l 0 -328 l 0 -231 l 694 -231 "},"ñ":{"x_min":-26,"x_max":611,"ha":656,"o":"m 83 0 l -26 0 l 138 778 l 242 778 l 223 688 q 325 767 272 741 q 437 794 379 794 q 556 757 514 794 q 599 654 599 721 q 596 614 599 634 q 587 568 593 593 l 466 0 l 356 0 l 475 562 q 483 603 480 585 q 486 632 486 622 q 462 688 486 667 q 398 710 438 710 q 291 673 342 710 q 206 580 239 636 l 83 0 m 611 1023 q 557 927 589 958 q 481 895 525 895 q 457 898 471 895 q 425 906 444 901 l 391 918 q 370 923 380 921 q 352 924 361 924 q 314 912 330 924 q 292 877 298 899 l 229 876 q 278 973 245 939 q 356 1008 311 1008 q 379 1006 366 1008 q 406 1000 391 1004 l 444 988 q 472 980 463 982 q 487 979 480 979 q 521 989 507 979 q 547 1023 535 1000 l 611 1023 "},"‚":{"x_min":-35,"x_max":165,"ha":340,"o":"m 35 138 l 165 138 l 128 -33 q 71 -144 114 -101 q -35 -198 28 -187 l -25 -139 q 40 -90 17 -124 q 68 0 62 -57 l 6 0 l 35 138 "},"Æ":{"x_min":-82,"x_max":1096,"ha":1101,"o":"m 55 0 l -82 0 l 529 1044 l 1096 1044 l 1076 946 l 737 946 l 665 597 l 1029 597 l 1007 494 l 644 494 l 562 106 l 959 106 l 940 0 l 421 0 l 490 316 l 227 316 l 55 0 m 283 418 l 507 418 l 615 946 l 579 946 l 283 418 "},"₣":{"x_min":-14,"x_max":1081,"ha":1035,"o":"m 659 1044 l 638 938 l 300 938 l 228 597 l 560 597 l 539 494 l 207 494 l 105 0 l -14 0 l 202 1044 l 659 1044 m 592 0 l 757 778 l 858 778 l 830 652 q 923 756 868 719 q 1039 794 977 794 q 1060 792 1049 794 q 1081 788 1070 791 l 1059 676 q 1038 681 1047 679 q 1019 683 1028 683 q 880 621 937 683 q 797 445 822 560 l 703 0 l 592 0 "},"ğ":{"x_min":-16,"x_max":648,"ha":682,"o":"m 544 778 l 648 778 l 488 24 q 388 -212 451 -150 q 200 -275 325 -275 q 39 -224 95 -275 q -16 -78 -16 -174 l -16 -64 l 91 -64 l 91 -75 q 120 -156 91 -128 q 206 -185 150 -185 q 322 -128 282 -185 q 385 70 363 -72 q 308 6 350 28 q 217 -16 265 -16 q 76 53 127 -16 q 26 247 26 122 q 54 465 26 351 q 125 654 82 579 q 223 763 168 726 q 346 800 278 800 q 458 763 412 800 q 520 663 504 727 l 544 778 m 253 74 q 334 106 296 74 q 401 200 371 138 q 455 370 432 268 q 479 547 479 471 q 449 660 479 620 q 367 701 420 701 q 271 663 312 701 q 199 544 231 625 q 156 386 172 473 q 140 226 140 299 q 170 114 140 154 q 253 74 201 74 m 266 1035 l 332 1035 q 357 973 334 993 q 427 954 380 954 q 515 973 480 954 q 573 1035 551 993 l 642 1035 q 561 909 617 952 q 421 867 505 867 q 305 905 345 867 q 266 1019 266 944 l 266 1035 "},"ª":{"x_min":-11,"x_max":405,"ha":463,"o":"m 293 778 q 259 765 276 770 q 225 757 242 760 l 179 747 q 95 706 121 735 q 69 624 69 676 q 89 568 69 589 q 144 548 109 548 q 229 585 198 548 q 283 727 260 622 l 293 778 m 264 567 q 203 504 235 523 q 127 486 172 486 q 25 523 61 486 q -11 629 -11 560 q 27 744 -11 702 q 154 805 65 786 l 251 827 q 306 861 290 835 q 323 940 323 888 q 301 981 323 965 q 241 997 279 997 q 171 974 194 997 q 146 905 148 951 l 69 904 q 119 1019 73 978 q 245 1060 165 1060 q 364 1028 323 1060 q 405 937 405 997 q 402 911 405 925 q 394 865 400 896 l 339 617 q 336 596 337 606 q 335 579 335 587 q 346 558 335 564 q 385 552 356 552 l 377 500 q 357 494 367 496 q 334 492 348 492 q 280 505 298 492 q 263 549 263 519 q 264 557 263 551 q 264 567 264 563 "},"Œ":{"x_min":53,"x_max":1210,"ha":1215,"o":"m 495 974 q 362 926 420 974 q 266 787 304 879 q 192 532 221 676 q 163 281 163 388 q 210 125 163 180 q 344 70 257 70 q 476 114 420 70 q 568 245 533 158 q 600 344 584 286 q 633 477 617 403 q 667 660 655 581 q 679 783 679 739 q 628 921 679 868 q 495 974 578 974 m 552 84 q 461 3 518 31 q 327 -24 403 -24 q 123 64 194 -24 q 53 320 53 152 q 88 602 53 452 q 180 859 124 752 q 315 1015 235 963 q 498 1068 395 1068 q 645 1028 588 1068 q 723 910 702 989 l 752 1044 l 1210 1044 l 1188 946 l 851 946 l 779 597 l 1141 597 l 1119 494 l 758 494 l 676 106 l 1073 106 l 1054 0 l 534 0 l 552 84 "},"T":{"x_min":56,"x_max":666,"ha":566,"o":"m 232 0 l 113 0 l 309 946 l 56 946 l 75 1044 l 666 1044 l 644 946 l 428 946 l 232 0 "},"š":{"x_min":-5,"x_max":606,"ha":611,"o":"m -2 230 l 103 230 q 102 217 103 225 q 102 205 102 209 q 134 105 102 138 q 234 72 167 72 q 337 111 298 72 q 376 216 376 151 q 355 295 376 266 q 273 349 334 323 q 116 447 151 403 q 82 566 82 492 q 145 739 82 676 q 316 803 208 803 q 479 752 418 803 q 540 617 540 701 q 537 580 540 606 q 537 576 537 577 l 438 576 l 438 580 q 406 677 438 644 q 315 710 375 710 q 225 674 258 710 q 192 580 192 639 q 312 453 192 508 q 357 432 341 440 q 459 353 428 399 q 490 235 490 307 q 418 43 490 114 q 227 -28 347 -28 q 57 27 119 -28 q -5 179 -5 83 q -4 200 -5 183 q -2 230 -3 217 m 226 1039 l 293 1039 l 385 934 l 530 1039 l 606 1039 l 440 863 l 323 863 l 226 1039 "},"Þ":{"x_min":-14,"x_max":691,"ha":736,"o":"m -14 0 l 202 1044 l 325 1044 l 285 852 l 397 852 q 621 789 552 852 q 691 588 691 726 q 596 339 691 420 q 306 258 502 258 l 159 258 l 105 0 l -14 0 m 180 356 l 287 356 q 514 408 455 356 q 574 592 574 461 q 533 718 574 681 q 391 755 493 755 l 263 755 l 180 356 "},"j":{"x_min":-146,"x_max":318,"ha":286,"o":"m 178 917 l 207 1051 l 318 1051 l 290 917 l 178 917 m 78 -74 q 18 -234 52 -193 q -78 -275 -16 -275 q -112 -273 -95 -274 q -146 -270 -129 -272 l -127 -181 l -104 -181 q -39 -103 -56 -181 l -38 -101 l 148 778 l 259 778 l 78 -74 "},"1":{"x_min":174,"x_max":554,"ha":692,"o":"m 341 0 l 230 0 l 393 814 q 320 796 356 802 q 249 790 284 790 q 210 791 229 790 q 174 794 192 792 l 190 873 q 360 917 297 878 q 466 1044 422 955 l 554 1044 l 341 0 "},"›":{"x_min":28,"x_max":303,"ha":386,"o":"m 91 524 l 114 628 l 303 435 l 280 327 l 28 165 l 47 285 l 221 394 l 91 524 "},"<":{"x_min":179,"x_max":978,"ha":1157,"o":"m 978 682 l 320 413 l 978 147 l 978 43 l 179 371 l 179 458 l 978 786 l 978 682 "},"t":{"x_min":18,"x_max":387,"ha":359,"o":"m 138 172 q 134 147 135 158 q 133 130 133 135 q 145 90 133 103 q 185 78 158 78 q 230 82 199 78 q 250 84 244 84 l 230 -12 q 197 -18 214 -16 q 161 -21 181 -21 q 54 9 90 -21 q 18 97 18 39 q 28 169 18 120 q 32 191 31 184 l 141 695 l 49 695 l 67 778 l 159 778 l 203 985 l 313 985 l 268 778 l 387 778 l 369 695 l 251 695 l 138 172 "},"¬":{"x_min":172,"x_max":984,"ha":1157,"o":"m 984 583 l 984 243 l 891 243 l 891 489 l 172 489 l 172 583 l 984 583 "},"ù":{"x_min":5,"x_max":629,"ha":656,"o":"m 125 213 q 118 172 120 190 q 116 145 116 154 q 139 89 116 110 q 203 68 163 68 q 308 101 257 68 q 395 196 358 135 l 519 778 l 629 778 l 463 0 l 358 0 l 378 87 q 276 8 329 34 q 166 -18 224 -18 q 47 18 89 -18 q 5 122 5 55 q 7 165 5 143 q 15 209 9 186 l 135 778 l 244 778 l 125 213 m 499 863 l 432 863 l 230 1039 l 361 1039 l 499 863 "},"ï":{"x_min":-24,"x_max":417,"ha":283,"o":"m 88 0 l -24 0 l 141 778 l 254 778 l 88 0 m 279 879 l 304 1005 l 417 1005 l 390 879 l 279 879 m 62 879 l 88 1005 l 200 1005 l 173 879 l 62 879 "},"Ò":{"x_min":50,"x_max":780,"ha":829,"o":"m 484 969 q 357 924 410 969 q 268 787 304 880 q 236 687 252 744 q 206 564 220 630 q 177 400 186 469 q 169 274 169 330 q 216 127 169 179 q 350 76 264 76 q 473 118 422 76 q 559 248 524 160 q 591 346 575 287 q 623 478 608 404 q 654 655 643 575 q 665 781 665 735 q 617 919 665 869 q 484 969 569 969 m 50 298 q 59 430 50 356 q 88 589 69 504 q 129 738 107 672 q 176 856 151 805 q 306 1016 229 963 q 487 1069 384 1069 q 705 986 630 1069 q 780 745 780 903 q 770 614 780 687 q 741 456 760 542 q 701 309 723 377 q 655 190 679 241 q 524 29 603 82 q 341 -24 446 -24 q 124 58 198 -24 q 50 298 50 140 m 642 1130 l 575 1130 l 373 1306 l 504 1306 l 642 1130 "},"&":{"x_min":1,"x_max":729,"ha":799,"o":"m 344 658 q 448 739 412 692 q 485 838 485 785 q 459 917 485 888 q 389 946 434 946 q 317 913 345 946 q 290 830 290 881 q 302 755 290 796 q 344 658 315 715 m 508 80 q 400 3 462 30 q 270 -24 338 -24 q 76 55 152 -24 q 1 260 1 134 q 65 455 1 370 q 255 597 129 540 q 198 717 217 659 q 179 829 179 776 q 240 984 179 922 q 393 1047 302 1047 q 538 991 480 1047 q 596 849 596 935 q 541 689 596 761 q 384 570 487 618 l 541 263 q 590 346 571 302 q 619 441 609 390 l 729 441 q 672 290 707 358 q 587 166 637 221 l 671 0 l 548 0 l 508 80 m 463 174 l 294 513 q 157 404 202 464 q 112 271 112 345 q 160 141 112 193 q 281 89 209 89 q 377 110 331 89 q 463 174 423 132 "},"":{"x_min":11,"x_max":708,"ha":692,"o":"m 552 591 l 256 591 q 249 562 253 578 q 243 533 246 547 q 237 502 240 519 q 232 472 234 484 l 503 471 l 477 408 l 223 408 q 213 291 216 357 q 213 283 213 285 l 213 266 q 247 123 213 171 q 349 76 281 76 q 459 132 415 76 q 524 298 503 188 l 629 298 q 523 59 598 142 q 340 -24 448 -24 q 160 55 222 -24 q 98 287 98 135 l 98 306 l 98 308 q 105 408 101 372 l 11 408 l 37 472 l 113 472 q 124 531 117 497 q 135 591 130 565 l 44 591 l 69 655 l 150 655 q 285 953 203 863 q 490 1044 367 1044 q 651 978 594 1044 q 708 799 708 913 q 708 772 708 781 q 706 756 708 764 l 598 756 q 599 770 598 760 q 600 785 600 780 q 570 905 600 866 q 477 944 540 944 q 272 661 348 944 l 270 655 l 578 655 l 552 591 "},"˝":{"x_min":307,"x_max":695,"ha":694,"o":"m 585 1039 l 695 1039 l 526 863 l 474 863 l 585 1039 m 397 1039 l 500 1039 l 356 863 l 307 863 l 397 1039 "},"I":{"x_min":-16,"x_max":324,"ha":313,"o":"m 108 0 l -16 0 l 202 1044 l 324 1044 l 108 0 "},"G":{"x_min":50,"x_max":755,"ha":817,"o":"m 606 421 l 381 421 l 400 519 l 742 519 l 638 0 l 552 0 l 565 108 q 476 9 533 43 q 341 -24 419 -24 q 127 64 205 -24 q 50 308 50 152 q 59 435 50 364 q 87 591 68 507 q 127 741 106 676 q 174 857 149 807 q 307 1018 228 965 q 489 1071 385 1071 q 686 1000 617 1071 q 755 799 755 929 q 753 756 755 780 q 748 700 751 731 l 635 699 q 637 727 636 709 q 641 784 641 770 q 598 925 641 876 q 477 974 556 974 q 354 927 405 974 q 267 783 303 881 q 198 528 223 661 q 173 283 173 395 q 219 121 173 178 q 350 65 265 65 q 524 159 455 65 q 606 421 593 254 "},"`":{"x_min":250,"x_max":519,"ha":694,"o":"m 519 863 l 452 863 l 250 1039 l 381 1039 l 519 863 "},"·":{"x_min":89,"x_max":267,"ha":346,"o":"m 89 516 q 115 578 89 552 q 178 604 141 604 q 241 578 216 604 q 267 516 267 553 q 240 453 267 479 q 178 428 214 428 q 115 453 141 428 q 89 516 89 479 "},"¿":{"x_min":28,"x_max":553,"ha":692,"o":"m 378 779 l 484 779 q 439 593 475 663 q 306 448 403 522 l 230 391 q 171 314 194 363 q 149 211 149 266 q 185 112 149 149 q 283 75 222 75 q 395 125 352 75 q 441 262 437 175 l 553 262 q 472 54 547 133 q 282 -24 397 -24 q 96 42 164 -24 q 28 220 28 108 q 68 376 28 306 q 192 502 109 445 l 240 536 q 338 634 307 580 q 378 779 368 688 m 409 1044 l 539 1044 l 512 909 l 383 909 l 409 1044 "},"ý":{"x_min":-97,"x_max":597,"ha":566,"o":"m 222 -33 q 103 -227 155 -178 q -22 -277 51 -277 q -57 -273 -39 -277 q -97 -262 -75 -270 l -73 -178 q -53 -183 -63 -182 q -29 -185 -43 -185 q 22 -170 0 -185 q 60 -122 43 -155 l 115 -17 l 58 778 l 168 778 l 205 149 l 474 778 l 597 778 l 222 -33 m 343 863 l 276 863 l 411 1039 l 537 1039 l 343 863 "},"º":{"x_min":16,"x_max":453,"ha":507,"o":"m 265 993 q 201 971 228 993 q 154 904 174 950 q 115 782 130 849 q 100 666 100 716 q 125 581 100 610 q 200 553 150 553 q 272 577 244 553 q 320 656 301 601 q 355 780 342 717 q 368 885 368 843 q 341 965 368 937 q 265 993 314 993 m 16 667 q 33 807 16 733 q 79 937 50 881 q 156 1031 110 1000 q 263 1063 203 1063 q 404 1015 355 1063 q 453 877 453 967 q 433 730 453 810 q 384 596 413 649 q 306 510 353 538 q 196 482 259 482 q 61 528 106 482 q 16 667 16 575 "},"∞":{"x_min":150,"x_max":1009,"ha":1157,"o":"m 620 378 q 699 288 654 319 q 801 258 744 258 q 913 303 870 258 q 957 421 957 349 q 917 535 957 489 q 816 580 877 580 q 716 534 761 580 q 620 378 671 488 m 538 451 q 459 541 504 511 q 357 571 414 571 q 245 526 288 571 q 202 409 202 481 q 241 295 202 340 q 342 250 281 250 q 443 296 397 250 q 538 451 488 342 m 586 327 q 485 192 538 235 q 368 150 432 150 q 213 225 276 150 q 150 413 150 301 q 206 605 150 532 q 354 679 263 679 q 470 636 418 679 q 571 499 522 593 q 671 637 617 593 q 790 682 724 682 q 945 606 881 682 q 1009 416 1009 529 q 952 225 1009 297 q 804 152 895 152 q 690 192 740 152 q 586 327 639 233 "},";":{"x_min":-32,"x_max":286,"ha":347,"o":"m 255 625 l 126 625 l 155 762 l 286 762 l 255 625 m 38 138 l 168 138 l 132 -33 q 74 -144 117 -101 q -32 -198 31 -187 l -22 -139 q 43 -91 20 -124 q 71 0 65 -58 l 9 0 l 38 138 "},"6":{"x_min":49,"x_max":669,"ha":692,"o":"m 352 578 q 216 490 269 578 q 163 262 163 402 q 197 125 163 172 q 297 79 231 79 q 378 100 344 79 q 437 169 411 121 q 477 271 462 213 q 492 380 492 330 q 458 530 492 482 q 352 578 424 578 m 200 572 q 284 644 239 621 q 381 668 329 668 q 548 592 486 668 q 611 388 611 516 q 521 92 611 210 q 294 -25 431 -25 q 111 56 173 -25 q 49 295 49 137 q 82 580 49 429 q 168 837 116 731 q 288 994 220 944 q 450 1044 356 1044 q 609 981 550 1044 q 669 813 669 919 l 669 803 q 669 800 669 802 q 667 782 667 790 l 564 782 q 531 909 561 868 q 442 950 502 950 q 298 856 358 950 q 200 572 238 762 "},"n":{"x_min":-26,"x_max":599,"ha":656,"o":"m 83 0 l -26 0 l 138 778 l 242 778 l 223 688 q 325 767 272 741 q 437 794 379 794 q 556 757 514 794 q 599 654 599 721 q 596 614 599 634 q 587 568 593 593 l 466 0 l 356 0 l 475 562 q 483 603 480 585 q 486 632 486 622 q 462 688 486 667 q 398 710 438 710 q 291 673 342 710 q 206 580 239 636 l 83 0 "},"¤":{"x_min":11,"x_max":708,"ha":692,"o":"m 552 591 l 256 591 q 249 562 253 578 q 243 533 246 547 q 237 502 240 519 q 232 472 234 484 l 503 471 l 477 408 l 223 408 q 213 291 216 357 q 213 283 213 285 l 213 266 q 247 123 213 171 q 349 76 281 76 q 459 132 415 76 q 524 298 503 188 l 629 298 q 523 59 598 142 q 340 -24 448 -24 q 160 55 222 -24 q 98 287 98 135 l 98 306 l 98 308 q 105 408 101 372 l 11 408 l 37 472 l 113 472 q 124 531 117 497 q 135 591 130 565 l 44 591 l 69 655 l 150 655 q 285 953 203 863 q 490 1044 367 1044 q 651 978 594 1044 q 708 799 708 913 q 708 772 708 781 q 706 756 708 764 l 598 756 q 599 770 598 760 q 600 785 600 780 q 570 905 600 866 q 477 944 540 944 q 272 661 348 944 l 270 655 l 578 655 l 552 591 "},"∂":{"x_min":71,"x_max":652,"ha":718,"o":"m 513 421 q 528 535 523 480 q 533 641 533 591 q 508 773 533 729 q 435 818 484 818 q 349 778 397 818 q 275 739 300 739 q 235 754 251 739 q 219 790 219 769 q 267 865 219 832 q 385 899 316 899 q 579 793 507 899 q 652 510 652 688 q 554 132 652 282 q 311 -17 456 -17 q 139 56 208 -17 q 71 240 71 129 q 145 461 71 374 q 330 549 220 549 q 443 518 399 549 q 513 421 487 487 m 480 335 q 450 456 480 414 q 367 499 421 499 q 245 411 293 499 q 198 183 198 323 q 227 62 198 104 q 310 21 256 21 q 432 109 384 21 q 480 335 480 197 "},"p":{"x_min":-79,"x_max":599,"ha":676,"o":"m 372 705 q 275 666 316 705 q 207 548 235 627 q 164 380 181 469 q 148 234 148 290 q 180 119 148 159 q 271 79 212 79 q 356 112 319 79 q 421 213 393 145 q 466 377 448 283 q 485 549 485 472 q 455 664 485 623 q 372 705 426 705 m 229 702 q 307 774 261 748 q 404 800 353 800 q 548 728 497 800 q 599 524 599 656 q 508 135 599 287 q 277 -16 418 -16 q 173 16 217 -16 q 110 109 130 49 l 30 -264 l -79 -264 l 143 778 l 248 778 l 229 702 "},"‡":{"x_min":-14,"x_max":645,"ha":694,"o":"m 296 608 l 70 608 l 86 697 l 312 697 l 374 1044 l 480 1044 l 418 697 l 645 697 l 630 608 l 403 608 l 334 218 l 561 218 l 546 128 l 319 128 l 258 -219 l 151 -219 l 213 128 l -14 128 l 2 218 l 229 218 l 296 608 "},"√":{"x_min":41,"x_max":885,"ha":885,"o":"m 756 1126 l 885 1126 l 885 1061 l 806 1061 l 403 -28 l 359 -28 l 142 570 l 57 540 l 41 594 l 233 661 l 406 180 l 756 1126 "},"S":{"x_min":21,"x_max":719,"ha":750,"o":"m 23 320 l 135 320 l 135 303 q 178 132 135 186 q 315 78 222 78 q 475 137 417 78 q 534 299 534 197 q 355 489 534 418 q 309 508 325 501 q 170 602 211 547 q 129 747 129 658 q 215 979 129 891 q 443 1068 302 1068 q 644 999 569 1068 q 719 811 719 930 q 718 792 719 799 q 716 780 718 786 l 606 780 l 606 793 q 563 920 606 875 q 443 965 521 965 q 301 909 354 965 q 248 764 248 854 q 425 586 248 660 q 445 577 438 580 q 615 466 575 522 q 655 314 655 410 q 559 68 655 162 q 310 -25 464 -25 q 97 53 173 -25 q 21 271 21 131 q 23 315 21 287 q 23 320 23 318 "},"/":{"x_min":-49,"x_max":399,"ha":386,"o":"m 399 1069 l 26 -129 l -49 -129 l 322 1069 l 399 1069 "},"y":{"x_min":-97,"x_max":597,"ha":566,"o":"m 222 -33 q 103 -227 155 -178 q -22 -277 51 -277 q -57 -273 -39 -277 q -97 -262 -75 -270 l -73 -178 q -53 -183 -63 -182 q -29 -185 -43 -185 q 22 -170 0 -185 q 60 -122 43 -155 l 115 -17 l 58 778 l 168 778 l 205 149 l 474 778 l 597 778 l 222 -33 "},"≈":{"x_min":121,"x_max":1038,"ha":1157,"o":"m 1038 292 q 902 219 966 242 q 774 196 838 196 q 580 242 709 196 q 382 288 451 288 q 265 263 326 288 q 121 180 205 239 l 121 286 q 259 360 194 336 q 383 385 324 385 q 590 338 461 385 q 775 292 719 292 q 895 316 835 292 q 1038 397 955 340 l 1038 292 m 1038 542 q 902 469 966 492 q 774 446 838 446 q 580 492 709 446 q 382 539 451 539 q 265 514 325 539 q 121 431 205 489 l 121 537 q 258 610 192 586 q 383 635 323 635 q 590 588 462 635 q 775 542 719 542 q 894 565 834 542 q 1038 648 953 589 l 1038 542 "},"g":{"x_min":-16,"x_max":648,"ha":682,"o":"m 544 778 l 648 778 l 488 24 q 388 -212 451 -150 q 200 -275 325 -275 q 39 -224 95 -275 q -16 -78 -16 -174 l -16 -64 l 91 -64 l 91 -75 q 120 -156 91 -128 q 206 -185 150 -185 q 322 -128 282 -185 q 385 70 363 -72 q 308 6 350 28 q 217 -16 265 -16 q 76 53 127 -16 q 26 247 26 122 q 54 465 26 351 q 125 654 82 579 q 223 763 168 726 q 346 800 278 800 q 458 763 412 800 q 520 663 504 727 l 544 778 m 253 74 q 334 106 296 74 q 401 200 371 138 q 455 370 432 268 q 479 547 479 471 q 449 660 479 620 q 367 701 420 701 q 271 663 312 701 q 199 544 231 625 q 156 386 172 473 q 140 226 140 299 q 170 114 140 154 q 253 74 201 74 "},"²":{"x_min":-15,"x_max":443,"ha":457,"o":"m 361 408 l -15 408 q 39 559 -12 490 q 196 685 92 628 l 258 720 q 339 786 312 748 q 366 868 366 823 q 340 948 366 920 q 266 976 314 976 q 188 942 216 976 q 150 837 159 908 l 75 837 q 134 983 83 931 q 267 1036 184 1036 q 396 992 349 1036 q 443 874 443 949 q 410 757 443 805 q 301 667 377 709 l 230 630 q 118 548 159 590 q 70 469 77 507 l 376 469 l 361 408 "},"ë":{"x_min":24,"x_max":571,"ha":636,"o":"m 171 472 l 451 472 q 457 527 455 502 q 460 572 460 552 q 430 675 460 640 q 344 710 401 710 q 238 653 280 710 q 171 472 196 596 m 516 256 q 424 48 495 123 q 250 -26 353 -26 q 82 44 141 -26 q 24 244 24 114 q 47 445 24 336 q 104 628 70 555 q 205 757 144 713 q 348 802 266 802 q 510 741 457 802 q 564 556 564 680 q 558 475 564 520 q 542 379 553 429 l 153 379 q 140 299 144 331 q 137 240 137 266 q 167 117 137 158 q 257 77 197 77 q 357 121 317 77 q 414 256 396 166 l 516 256 m 433 879 l 458 1005 l 571 1005 l 544 879 l 433 879 m 216 879 l 242 1005 l 354 1005 l 327 879 l 216 879 "},"–":{"x_min":-28,"x_max":681,"ha":694,"o":"m -28 357 l -13 424 l 681 424 l 666 357 l -28 357 "},"ƒ":{"x_min":-24,"x_max":653,"ha":692,"o":"m 286 569 l 134 569 l 134 658 l 299 658 l 320 763 q 403 986 352 926 q 549 1046 454 1046 q 601 1040 577 1046 q 653 1023 626 1035 l 627 927 q 580 943 596 939 q 552 948 564 948 q 467 894 496 948 q 413 658 439 841 l 580 658 l 580 569 l 400 569 l 333 151 q 237 -197 290 -124 q 79 -270 184 -270 q 27 -264 51 -270 q -24 -248 2 -259 l 1 -152 q 45 -167 27 -162 q 77 -172 64 -172 q 215 109 170 -172 l 216 117 l 286 569 "},"J":{"x_min":-29,"x_max":607,"ha":595,"o":"m 434 218 q 348 28 406 81 q 181 -24 291 -24 q 24 29 77 -24 q -29 186 -29 82 q -24 245 -29 212 q -12 319 -20 279 l 97 319 q 87 242 90 276 q 84 185 84 208 q 108 104 84 130 q 183 78 132 78 q 271 113 240 78 q 327 275 302 149 l 487 1044 l 607 1044 l 434 218 "},"Ã":{"x_min":-89,"x_max":714,"ha":714,"o":"m 219 400 l 488 400 l 473 963 l 219 400 m 35 0 l -89 0 l 412 1044 l 555 1044 l 615 0 l 502 0 l 491 294 l 170 294 l 35 0 m 714 1290 q 660 1194 692 1225 q 584 1162 628 1162 q 560 1165 574 1162 q 528 1173 547 1168 l 494 1185 q 473 1190 483 1188 q 455 1191 464 1191 q 417 1179 433 1191 q 395 1144 401 1166 l 332 1143 q 381 1240 348 1206 q 459 1275 414 1275 q 482 1273 469 1275 q 509 1267 494 1271 l 547 1255 q 575 1247 566 1249 q 590 1246 583 1246 q 624 1256 610 1246 q 650 1290 638 1267 l 714 1290 "},"©":{"x_min":79,"x_max":1079,"ha":1157,"o":"m 714 615 q 669 695 705 667 q 575 724 633 724 q 463 662 504 724 q 423 493 423 601 q 464 327 423 386 q 582 268 506 268 q 674 299 637 268 q 721 387 711 331 l 819 387 q 746 244 812 299 q 577 189 679 189 q 384 270 454 189 q 314 497 314 351 q 387 715 314 632 q 581 799 461 799 q 742 748 678 799 q 813 615 806 697 l 714 615 m 1014 492 q 981 659 1014 580 q 888 799 949 738 q 746 894 825 861 q 579 927 668 927 q 414 895 492 927 q 275 802 336 863 q 177 658 211 739 q 144 492 144 578 q 177 328 144 406 q 273 186 210 249 q 414 91 335 124 q 579 59 492 59 q 744 92 664 59 q 888 188 823 125 q 982 325 950 248 q 1014 492 1014 403 m 577 993 q 771 956 680 993 q 933 847 861 919 q 1041 685 1003 777 q 1079 493 1079 593 q 1042 302 1079 391 q 934 142 1005 212 q 767 31 859 70 q 577 -7 676 -7 q 388 30 479 -7 q 226 141 298 68 q 116 303 154 212 q 79 493 79 393 q 116 683 79 592 q 227 848 154 775 q 387 956 298 919 q 577 993 477 993 "},"˘":{"x_min":271,"x_max":647,"ha":694,"o":"m 271 1035 l 337 1035 q 362 973 339 993 q 432 954 385 954 q 520 973 485 954 q 578 1035 556 993 l 647 1035 q 566 909 622 952 q 426 867 510 867 q 310 905 350 867 q 271 1019 271 944 l 271 1035 "},"≥":{"x_min":178,"x_max":981,"ha":1157,"o":"m 981 110 l 981 16 l 178 16 l 178 110 l 981 110 m 981 550 l 981 467 l 178 200 l 178 301 l 814 508 l 178 718 l 178 818 l 981 550 "},"D":{"x_min":-16,"x_max":759,"ha":821,"o":"m 124 104 l 258 104 q 440 133 386 104 q 537 238 494 163 q 606 442 580 319 q 633 699 633 565 q 580 885 633 831 q 398 940 527 940 l 299 940 l 124 104 m -16 0 l 202 1044 l 426 1044 q 678 958 597 1044 q 759 692 759 873 q 718 386 759 537 q 614 148 677 235 q 479 33 555 67 q 241 0 403 0 l -16 0 "},"ÿ":{"x_min":-97,"x_max":597,"ha":566,"o":"m 222 -33 q 103 -227 155 -178 q -22 -277 51 -277 q -57 -273 -39 -277 q -97 -262 -75 -270 l -73 -178 q -53 -183 -63 -182 q -29 -185 -43 -185 q 22 -170 0 -185 q 60 -122 43 -155 l 115 -17 l 58 778 l 168 778 l 205 149 l 474 778 l 597 778 l 222 -33 m 414 879 l 439 1005 l 552 1005 l 525 879 l 414 879 m 197 879 l 223 1005 l 335 1005 l 308 879 l 197 879 "},"ł":{"x_min":-24,"x_max":352,"ha":315,"o":"m -6 0 l 92 473 l -24 405 l -4 490 l 112 559 l 213 1042 l 325 1042 l 235 612 l 352 681 l 333 596 l 215 526 l 105 0 l -6 0 "},"Ł":{"x_min":-26,"x_max":545,"ha":612,"o":"m -1 0 l 78 388 l -26 328 l -2 446 l 104 508 l 215 1044 l 335 1044 l 238 585 l 464 715 l 437 594 l 215 466 l 139 106 l 545 106 l 525 0 l -1 0 "},"$":{"x_min":36,"x_max":660,"ha":692,"o":"m 340 599 l 409 933 l 407 933 q 283 879 331 933 q 236 744 236 826 q 259 656 236 689 q 340 599 283 622 m 373 467 l 295 96 l 308 96 q 444 155 392 96 q 496 311 496 215 q 466 409 496 371 q 373 467 436 447 m 38 323 l 139 323 l 139 287 q 163 167 139 212 q 237 106 187 122 l 316 489 q 176 583 218 528 q 134 724 134 637 q 211 944 134 863 q 421 1026 288 1026 l 430 1026 l 451 1116 l 510 1116 l 489 1017 q 616 936 573 995 q 660 785 660 876 q 659 767 660 773 q 658 757 659 761 l 560 756 l 560 763 q 538 868 560 831 q 469 923 517 905 l 396 574 q 557 477 512 531 q 603 323 603 422 q 517 87 603 174 q 286 0 432 0 l 276 0 l 247 -139 l 185 -139 l 216 8 q 82 102 128 34 q 36 277 36 171 q 38 320 36 292 q 38 323 38 322 "},"w":{"x_min":61,"x_max":911,"ha":879,"o":"m 204 0 l 87 0 l 61 778 l 166 778 l 172 140 l 421 778 l 536 778 l 536 140 l 794 778 l 911 778 l 563 0 l 450 0 l 454 636 l 204 0 "},"\\":{"x_min":111,"x_max":255,"ha":386,"o":"m 181 -129 l 111 1069 l 185 1069 l 255 -129 l 181 -129 "},"∫":{"x_min":32,"x_max":690,"ha":724,"o":"m 210 -178 q 291 288 282 -178 q 294 400 293 361 q 366 900 302 749 q 567 1051 430 1051 q 656 1022 622 1051 q 690 949 690 993 q 668 891 690 912 q 609 870 646 870 q 561 882 580 870 q 534 919 542 895 q 527 954 530 929 q 513 979 524 979 q 431 559 440 979 q 426 353 428 428 q 350 -111 414 28 q 153 -252 286 -252 q 66 -223 100 -252 q 32 -151 32 -195 q 55 -92 32 -113 q 119 -71 78 -71 q 157 -80 141 -71 q 184 -109 174 -90 q 194 -149 191 -121 q 210 -178 197 -178 "},"Ì":{"x_min":-16,"x_max":381,"ha":313,"o":"m 108 0 l -16 0 l 202 1044 l 324 1044 l 108 0 m 381 1130 l 314 1130 l 112 1306 l 243 1306 l 381 1130 "},"Ç":{"x_min":50,"x_max":751,"ha":802,"o":"m 576 345 l 683 345 q 560 72 653 170 q 328 -25 466 -25 q 120 59 191 -25 q 50 307 50 143 q 85 590 50 435 q 174 858 120 745 q 304 1018 226 965 q 487 1071 381 1071 q 682 1000 614 1071 q 751 800 751 930 q 749 757 751 781 q 744 701 747 732 l 632 701 q 635 745 634 724 q 637 783 637 766 q 596 927 637 878 q 477 977 555 977 q 352 928 405 977 q 264 783 299 880 q 234 682 249 741 q 205 555 218 623 q 180 406 188 477 q 172 283 172 334 q 213 124 172 178 q 337 71 255 71 q 486 143 423 71 q 576 345 550 216 m 147 -291 l 171 -227 q 243 -244 212 -238 q 292 -250 273 -250 q 362 -234 340 -250 q 384 -183 384 -218 q 356 -141 384 -154 q 263 -129 329 -129 l 249 -129 l 293 0 l 344 0 l 321 -69 l 336 -69 q 444 -97 407 -69 q 481 -181 481 -126 q 436 -284 481 -248 q 311 -321 392 -321 q 244 -314 283 -321 q 147 -291 205 -307 "},"C":{"x_min":50,"x_max":751,"ha":802,"o":"m 576 345 l 683 345 q 560 72 653 170 q 328 -25 466 -25 q 120 59 191 -25 q 50 307 50 143 q 85 590 50 435 q 174 858 120 745 q 304 1018 226 965 q 487 1071 381 1071 q 682 1000 614 1071 q 751 800 751 930 q 749 757 751 781 q 744 701 747 732 l 632 701 q 635 745 634 724 q 637 783 637 766 q 596 927 637 878 q 477 977 555 977 q 352 928 405 977 q 264 783 299 880 q 234 682 249 741 q 205 555 218 623 q 180 406 188 477 q 172 283 172 334 q 213 124 172 178 q 337 71 255 71 q 486 143 423 71 q 576 345 550 216 "},"!":{"x_min":5,"x_max":360,"ha":359,"o":"m 31 136 l 161 136 l 134 0 l 5 0 l 31 136 m 92 261 l 165 741 l 232 1044 l 360 1044 l 290 728 l 152 261 l 92 261 "},"ç":{"x_min":26,"x_max":579,"ha":636,"o":"m 529 267 q 448 52 520 129 q 259 -25 376 -25 q 84 41 143 -25 q 26 238 26 107 q 48 438 26 333 q 106 623 70 543 q 207 759 147 716 q 355 803 268 803 q 522 739 465 803 q 579 552 579 676 q 578 531 579 539 q 577 518 578 524 l 472 518 l 472 563 q 441 668 472 632 q 351 704 410 704 q 263 673 299 704 q 204 577 228 643 q 156 403 174 498 q 139 238 139 307 q 171 115 139 156 q 270 75 204 75 q 377 121 339 75 q 427 267 415 168 l 529 267 m 97 -291 l 121 -227 q 193 -244 162 -238 q 242 -250 223 -250 q 312 -234 290 -250 q 334 -183 334 -218 q 306 -141 334 -154 q 213 -129 279 -129 l 199 -129 l 243 0 l 294 0 l 271 -69 l 286 -69 q 394 -97 357 -69 q 431 -181 431 -126 q 386 -284 431 -248 q 261 -321 342 -321 q 194 -314 233 -321 q 97 -291 155 -307 "},"È":{"x_min":-16,"x_max":659,"ha":664,"o":"m -16 0 l 202 1044 l 659 1044 l 636 942 l 300 942 l 228 597 l 590 597 l 568 494 l 207 494 l 125 106 l 522 106 l 501 0 l -16 0 m 545 1130 l 478 1130 l 276 1306 l 407 1306 l 545 1130 "},"X":{"x_min":-89,"x_max":728,"ha":681,"o":"m 46 0 l -89 0 l 270 547 l 75 1044 l 200 1044 l 346 659 l 596 1044 l 728 1044 l 394 536 l 605 0 l 478 0 l 319 416 l 46 0 "},"ô":{"x_min":21,"x_max":603,"ha":676,"o":"m 352 704 q 268 673 303 704 q 205 577 232 642 q 153 403 173 498 q 134 237 134 308 q 167 116 134 157 q 266 75 201 75 q 363 109 325 75 q 427 222 402 144 q 473 400 456 310 q 490 548 490 490 q 454 663 490 623 q 352 704 418 704 m 21 240 q 44 439 21 333 q 105 625 67 544 q 208 758 147 714 q 351 803 269 803 q 538 735 474 803 q 603 540 603 668 q 576 327 603 442 q 512 137 550 212 q 408 15 471 55 q 261 -25 345 -25 q 81 41 141 -25 q 21 240 21 107 m 584 863 l 517 863 l 424 966 l 279 863 l 204 863 l 369 1039 l 486 1039 l 584 863 "},"đ":{"x_min":22,"x_max":786,"ha":685,"o":"m 248 76 q 344 113 303 76 q 415 230 385 151 q 456 385 440 297 q 472 542 472 473 q 440 661 472 620 q 348 702 408 702 q 263 668 301 702 q 198 566 225 634 q 153 405 171 498 q 135 241 135 311 q 164 118 135 161 q 248 76 193 76 m 391 78 q 313 7 360 33 q 216 -18 267 -18 q 72 52 123 -18 q 22 251 22 122 q 48 469 22 357 q 117 654 75 581 q 216 759 158 722 q 344 796 275 796 q 446 763 403 796 q 512 667 488 730 l 554 865 l 379 865 l 394 931 l 568 931 l 591 1042 l 698 1042 l 674 931 l 786 931 l 773 865 l 662 865 l 478 0 l 373 0 l 391 78 "},"}":{"x_min":108,"x_max":582,"ha":694,"o":"m 390 758 l 390 592 q 426 451 390 492 q 551 410 463 410 q 566 411 556 410 q 582 412 576 412 l 582 310 q 567 310 577 310 q 552 311 556 311 q 426 270 463 311 q 390 128 390 229 l 390 -36 q 374 -180 390 -137 q 322 -246 359 -223 q 252 -272 293 -264 q 137 -280 210 -280 l 108 -280 l 108 -178 l 134 -178 q 244 -147 215 -178 q 273 -23 273 -117 l 273 139 q 303 294 273 248 q 409 359 333 340 q 303 426 333 380 q 273 581 273 472 l 273 745 q 244 869 273 839 q 134 900 215 900 l 108 900 l 108 1002 l 133 1002 q 249 993 205 1002 q 322 966 292 985 q 374 901 359 943 q 390 758 390 858 "},"â":{"x_min":-16,"x_max":540,"ha":616,"o":"m 391 398 q 350 381 371 388 q 300 367 329 373 l 238 353 q 127 294 162 336 q 93 177 93 252 q 119 98 93 127 q 191 69 145 69 q 305 122 264 69 q 376 325 346 176 l 391 398 m 353 95 q 270 5 312 31 q 169 -21 227 -21 q 32 32 81 -21 q -16 184 -16 86 q 35 350 -16 290 q 205 436 87 409 l 334 467 q 409 517 387 479 q 431 629 431 555 q 401 687 431 665 q 321 710 372 710 q 228 677 259 710 q 194 577 198 645 l 92 577 q 159 741 98 683 q 327 799 220 799 q 486 754 432 799 q 540 625 540 710 q 536 583 540 606 q 524 521 533 560 l 453 167 q 447 134 449 146 q 445 114 445 121 q 460 82 445 91 q 514 74 475 74 l 501 0 q 475 -9 488 -6 q 444 -12 462 -12 q 374 7 397 -12 q 350 69 350 27 q 352 88 350 74 q 353 95 353 93 m 540 863 l 473 863 l 380 966 l 235 863 l 160 863 l 325 1039 l 442 1039 l 540 863 "},"ø":{"x_min":-32,"x_max":645,"ha":676,"o":"m 487 582 l 161 119 q 202 86 179 96 q 262 76 226 76 q 362 110 324 76 q 426 224 400 144 q 472 396 455 310 q 489 536 489 483 q 488 562 489 552 q 487 582 488 572 m 135 193 l 459 656 q 413 691 438 680 q 352 702 388 702 q 257 666 294 702 q 192 549 220 631 q 149 384 165 470 q 134 233 134 298 q 134 208 134 222 q 135 193 135 195 m 53 78 q 28 148 35 112 q 21 231 21 184 q 43 436 21 329 q 104 625 66 544 q 209 760 147 716 q 362 804 272 804 q 451 790 412 804 q 525 746 490 776 l 591 845 l 645 808 l 567 695 q 593 632 584 670 q 602 540 602 595 q 576 325 602 438 q 513 137 551 211 q 406 14 470 55 q 255 -26 342 -26 q 160 -12 201 -26 q 97 28 119 1 l 21 -81 l -32 -44 l 53 78 "},"Ä":{"x_min":-89,"x_max":699,"ha":714,"o":"m 219 400 l 488 400 l 473 963 l 219 400 m 35 0 l -89 0 l 412 1044 l 555 1044 l 615 0 l 502 0 l 491 294 l 170 294 l 35 0 m 561 1146 l 586 1272 l 699 1272 l 672 1146 l 561 1146 m 344 1146 l 370 1272 l 482 1272 l 455 1146 l 344 1146 "},"‰":{"x_min":64,"x_max":1353,"ha":1417,"o":"m 1162 427 q 1090 386 1111 427 q 1069 242 1069 346 q 1091 121 1069 159 q 1162 83 1113 83 q 1234 126 1211 83 q 1257 262 1257 170 q 1233 386 1257 345 q 1162 427 1210 427 m 973 259 q 1019 447 973 385 q 1159 510 1065 510 q 1305 448 1257 510 q 1353 259 1353 387 q 1303 66 1353 133 q 1161 0 1254 0 q 1018 62 1064 0 q 973 259 973 125 m 715 427 q 643 386 664 427 q 622 242 622 346 q 644 121 622 159 q 715 83 667 83 q 786 126 763 83 q 810 262 810 170 q 786 386 810 345 q 715 427 763 427 m 526 259 q 572 447 526 385 q 713 510 619 510 q 858 448 811 510 q 906 259 906 387 q 857 66 906 133 q 716 0 808 0 q 572 63 618 0 q 526 259 526 126 m 252 949 q 180 909 201 949 q 160 764 160 869 q 181 643 160 681 q 252 605 203 605 q 324 648 301 605 q 348 784 348 692 q 324 908 348 867 q 252 949 300 949 m 64 781 q 110 969 64 907 q 251 1032 157 1032 q 396 970 349 1032 q 444 783 444 909 q 394 589 444 656 q 252 522 345 522 q 109 584 155 522 q 64 781 64 647 m 206 -19 l 679 1050 l 757 1050 l 287 -19 l 206 -19 "},"N":{"x_min":-16,"x_max":820,"ha":807,"o":"m 104 0 l -16 0 l 202 1044 l 357 1044 l 524 134 l 700 1044 l 820 1044 l 602 0 l 443 0 l 280 919 l 104 0 "},"—":{"x_min":-28,"x_max":1375,"ha":1389,"o":"m -28 357 l -13 424 l 1375 424 l 1360 357 l -28 357 "},"2":{"x_min":-21,"x_max":671,"ha":692,"o":"m 547 0 l -21 0 q 61 252 -18 136 q 296 462 140 367 l 392 521 q 513 631 473 570 q 554 768 554 693 q 515 901 554 855 q 404 948 476 948 q 285 891 328 948 q 228 716 242 835 l 115 716 q 204 959 128 872 q 407 1046 280 1046 q 600 974 530 1046 q 671 778 671 902 q 622 582 671 662 q 457 433 573 503 l 350 369 q 180 235 243 305 q 109 103 117 166 l 569 103 l 547 0 "},"ü":{"x_min":5,"x_max":629,"ha":656,"o":"m 125 213 q 118 172 120 190 q 116 145 116 154 q 139 89 116 110 q 203 68 163 68 q 308 101 257 68 q 395 196 358 135 l 519 778 l 629 778 l 463 0 l 358 0 l 378 87 q 276 8 329 34 q 166 -18 224 -18 q 47 18 89 -18 q 5 122 5 55 q 7 165 5 143 q 15 209 9 186 l 135 778 l 244 778 l 125 213 m 458 879 l 483 1005 l 596 1005 l 569 879 l 458 879 m 241 879 l 267 1005 l 379 1005 l 352 879 l 241 879 "},"":{"x_min":-7,"x_max":647,"ha":621,"o":"m 426 0 l 316 0 l 537 1042 l 647 1042 l 426 0 m -7 0 l 141 695 l 50 695 l 67 778 l 160 778 l 191 913 q 243 1023 211 993 q 335 1053 275 1053 q 375 1050 351 1053 q 433 1042 398 1047 l 413 953 q 401 953 409 953 q 368 956 376 956 q 316 938 332 956 q 288 871 299 920 l 269 778 l 376 778 l 358 695 l 251 695 l 101 0 l -7 0 "},"Ó":{"x_min":50,"x_max":780,"ha":829,"o":"m 484 969 q 357 924 410 969 q 268 787 304 880 q 236 687 252 744 q 206 564 220 630 q 177 400 186 469 q 169 274 169 330 q 216 127 169 179 q 350 76 264 76 q 473 118 422 76 q 559 248 524 160 q 591 346 575 287 q 623 478 608 404 q 654 655 643 575 q 665 781 665 735 q 617 919 665 869 q 484 969 569 969 m 50 298 q 59 430 50 356 q 88 589 69 504 q 129 738 107 672 q 176 856 151 805 q 306 1016 229 963 q 487 1069 384 1069 q 705 986 630 1069 q 780 745 780 903 q 770 614 780 687 q 741 456 760 542 q 701 309 723 377 q 655 190 679 241 q 524 29 603 82 q 341 -24 446 -24 q 124 58 198 -24 q 50 298 50 140 m 530 1130 l 463 1130 l 598 1306 l 724 1306 l 530 1130 "},"˜":{"x_min":249,"x_max":631,"ha":694,"o":"m 631 1023 q 577 927 609 958 q 501 895 545 895 q 477 898 491 895 q 445 906 464 901 l 411 918 q 390 923 400 921 q 372 924 381 924 q 334 912 350 924 q 312 877 318 899 l 249 876 q 298 973 265 939 q 376 1008 331 1008 q 399 1006 386 1008 q 426 1000 411 1004 l 464 988 q 492 980 483 982 q 507 979 500 979 q 541 989 527 979 q 567 1023 555 1000 l 631 1023 "},"ˇ":{"x_min":267,"x_max":647,"ha":694,"o":"m 267 1039 l 334 1039 l 426 934 l 571 1039 l 647 1039 l 481 863 l 364 863 l 267 1039 "},"Ÿ":{"x_min":29,"x_max":744,"ha":636,"o":"m 169 0 l 255 420 l 29 1044 l 156 1044 l 325 543 l 609 1044 l 744 1044 l 378 434 l 287 0 l 169 0 m 503 1146 l 528 1272 l 641 1272 l 614 1146 l 503 1146 m 286 1146 l 312 1272 l 424 1272 l 397 1146 l 286 1146 "},"€":{"x_min":11,"x_max":708,"ha":692,"o":"m 552 591 l 256 591 q 249 562 253 578 q 243 533 246 547 q 237 502 240 519 q 232 472 234 484 l 503 471 l 477 408 l 223 408 q 213 291 216 357 q 213 283 213 285 l 213 266 q 247 123 213 171 q 349 76 281 76 q 459 132 415 76 q 524 298 503 188 l 629 298 q 523 59 598 142 q 340 -24 448 -24 q 160 55 222 -24 q 98 287 98 135 l 98 306 l 98 308 q 105 408 101 372 l 11 408 l 37 472 l 113 472 q 124 531 117 497 q 135 591 130 565 l 44 591 l 69 655 l 150 655 q 285 953 203 863 q 490 1044 367 1044 q 651 978 594 1044 q 708 799 708 913 q 708 772 708 781 q 706 756 708 764 l 598 756 q 599 770 598 760 q 600 785 600 780 q 570 905 600 866 q 477 944 540 944 q 272 661 348 944 l 270 655 l 578 655 l 552 591 "},"ß":{"x_min":-22,"x_max":637,"ha":685,"o":"m -22 0 l 149 810 q 238 993 176 936 q 409 1050 299 1050 q 572 984 507 1050 q 637 816 637 918 q 589 649 637 717 q 468 577 542 582 q 554 500 526 548 q 583 380 583 451 q 560 225 583 305 q 502 87 538 145 q 424 5 468 32 q 325 -21 381 -21 q 252 -7 287 -21 q 186 31 217 6 l 210 134 q 263 94 240 106 q 310 83 287 83 q 377 104 351 83 q 423 175 404 126 q 456 287 444 226 q 468 403 468 348 q 433 512 468 477 q 317 555 399 546 l 333 639 q 351 637 340 638 q 394 634 382 634 q 490 689 453 634 q 528 834 528 745 q 494 925 528 893 q 402 958 461 958 q 302 911 338 958 q 232 701 267 865 l 86 0 l -22 0 "},"s":{"x_min":-5,"x_max":540,"ha":611,"o":"m -2 230 l 103 230 q 102 217 103 225 q 102 205 102 209 q 134 105 102 138 q 234 72 167 72 q 337 111 298 72 q 376 216 376 151 q 355 295 376 266 q 273 349 334 323 q 116 447 151 403 q 82 566 82 492 q 145 739 82 676 q 316 803 208 803 q 479 752 418 803 q 540 617 540 701 q 537 580 540 606 q 537 576 537 577 l 438 576 l 438 580 q 406 677 438 644 q 315 710 375 710 q 225 674 258 710 q 192 580 192 639 q 312 453 192 508 q 357 432 341 440 q 459 353 428 399 q 490 235 490 307 q 418 43 490 114 q 227 -28 347 -28 q 57 27 119 -28 q -5 179 -5 83 q -4 200 -5 183 q -2 230 -3 217 "},"?":{"x_min":135,"x_max":661,"ha":692,"o":"m 278 0 l 149 0 l 175 136 l 305 136 l 278 0 m 310 265 l 204 265 q 248 450 212 380 q 381 596 284 521 l 457 653 q 516 729 493 680 q 539 832 539 777 q 502 932 539 894 q 404 970 465 970 q 293 919 334 970 q 248 782 251 869 l 135 782 q 214 989 139 910 q 405 1068 289 1068 q 592 1001 523 1068 q 661 823 661 935 q 619 667 661 738 q 495 541 578 596 l 446 508 q 349 409 379 463 q 310 265 318 355 "},"c":{"x_min":26,"x_max":579,"ha":636,"o":"m 529 267 q 448 52 520 129 q 259 -25 376 -25 q 84 41 143 -25 q 26 238 26 107 q 48 438 26 333 q 106 623 70 543 q 207 759 147 716 q 355 803 268 803 q 522 739 465 803 q 579 552 579 676 q 578 531 579 539 q 577 518 578 524 l 472 518 l 472 563 q 441 668 472 632 q 351 704 410 704 q 263 673 299 704 q 204 577 228 643 q 156 403 174 498 q 139 238 139 307 q 171 115 139 156 q 270 75 204 75 q 377 121 339 75 q 427 267 415 168 l 529 267 "},"¶":{"x_min":45,"x_max":651,"ha":694,"o":"m 651 945 l 570 945 l 570 0 l 493 0 l 493 945 l 374 945 l 374 0 l 297 0 l 297 530 q 113 599 181 535 q 45 766 45 663 q 117 937 45 872 q 311 1003 190 1003 l 651 1003 l 651 945 "},"•":{"x_min":208,"x_max":609,"ha":819,"o":"m 208 516 q 266 657 208 599 q 409 716 325 716 q 550 657 491 716 q 609 516 609 598 q 549 374 609 433 q 407 315 490 315 q 266 373 324 315 q 208 516 208 432 "},"(":{"x_min":110,"x_max":538,"ha":443,"o":"m 311 -278 l 240 -278 q 142 -26 175 -158 q 110 242 110 105 q 199 673 110 464 q 454 1044 289 881 l 538 1044 q 305 659 387 884 q 224 181 224 435 q 246 -60 224 57 q 311 -278 268 -179 "},"◊":{"x_min":4,"x_max":682,"ha":686,"o":"m 343 956 l 81 402 l 343 -157 l 604 402 l 343 956 m 343 1122 l 682 402 l 343 -323 l 4 402 l 343 1122 "},"­":{"x_min":25,"x_max":395,"ha":457,"o":"m 25 342 l 47 452 l 395 452 l 365 342 l 25 342 "},":":{"x_min":10,"x_max":288,"ha":347,"o":"m 257 625 l 128 625 l 157 762 l 288 762 l 257 625 m 139 0 l 10 0 l 39 139 l 170 139 l 139 0 "},"Û":{"x_min":47,"x_max":823,"ha":806,"o":"m 176 336 q 175 327 176 332 q 162 222 162 260 q 208 111 162 148 q 349 75 255 75 q 471 117 429 75 q 537 268 514 160 l 702 1044 l 823 1044 l 663 285 q 552 46 628 118 q 340 -25 477 -25 q 122 37 197 -25 q 47 216 47 99 q 52 290 47 243 q 68 388 58 338 l 203 1044 l 324 1044 l 176 336 m 715 1130 l 648 1130 l 555 1233 l 410 1130 l 335 1130 l 500 1306 l 617 1306 l 715 1130 "},"V":{"x_min":90,"x_max":794,"ha":718,"o":"m 294 0 l 152 0 l 90 1044 l 202 1044 l 247 132 l 665 1044 l 794 1044 l 294 0 "}," ":{"x_min":0,"x_max":0,"ha":692},"@":{"x_min":72,"x_max":1318,"ha":1389,"o":"m 870 579 l 909 657 l 998 657 l 899 265 q 895 244 897 254 q 894 225 894 234 q 911 178 894 194 q 962 161 929 161 q 1031 179 994 161 q 1103 231 1068 197 q 1188 357 1158 282 q 1219 516 1219 432 q 1089 801 1219 692 q 751 911 960 911 q 584 892 661 911 q 441 833 508 873 q 241 630 312 756 q 170 352 170 504 q 211 143 170 232 q 342 -12 253 54 q 502 -92 409 -64 q 697 -121 594 -121 q 919 -87 811 -121 q 1118 7 1027 -54 l 1155 -47 q 942 -161 1054 -123 q 705 -199 829 -199 q 469 -167 576 -199 q 279 -72 362 -135 q 123 113 175 7 q 72 353 72 219 q 107 566 72 465 q 209 748 142 666 q 447 931 308 869 q 756 994 587 994 q 966 963 867 994 q 1138 877 1066 932 q 1272 720 1226 809 q 1318 528 1318 631 q 1274 314 1318 409 q 1149 154 1231 219 q 1048 98 1103 118 q 935 78 993 78 q 834 105 868 78 q 800 184 800 132 l 800 197 q 712 108 762 137 q 596 80 662 80 q 437 137 492 80 q 383 305 383 195 q 476 573 383 465 q 706 681 570 681 q 805 655 764 681 q 870 579 846 630 m 807 321 l 847 481 q 800 574 835 541 q 712 607 765 607 q 555 518 619 607 q 492 301 492 430 q 524 191 492 230 q 618 153 557 153 q 736 199 683 153 q 807 321 788 246 "},"¾":{"x_min":11,"x_max":1076,"ha":1101,"o":"m 923 207 l 991 492 l 743 207 l 923 207 m 944 0 l 875 0 l 908 153 l 668 153 l 682 212 l 1008 585 l 1076 585 l 991 207 l 1058 207 l 1044 153 l 978 153 l 944 0 m 288 -24 l 204 -24 l 813 1044 l 898 1044 l 288 -24 m 17 629 l 85 628 q 84 615 84 622 q 84 602 84 609 q 106 518 84 544 q 179 492 129 492 q 267 532 233 492 q 301 635 301 572 q 268 704 301 681 q 171 728 235 728 l 168 728 l 179 778 l 191 778 q 307 808 269 778 q 346 900 346 838 q 325 958 346 938 q 263 978 304 978 q 198 953 224 978 q 163 884 173 929 l 96 884 q 150 994 105 954 q 265 1035 195 1035 q 378 998 337 1035 q 419 897 419 961 q 384 799 419 840 q 292 746 349 757 q 354 696 334 725 q 374 626 374 667 q 319 489 374 543 q 180 436 265 436 q 56 476 102 436 q 11 587 11 517 q 12 609 11 599 q 17 629 13 619 "},"i":{"x_min":-24,"x_max":312,"ha":283,"o":"m 172 917 l 199 1051 l 312 1051 l 282 917 l 172 917 m 88 0 l -24 0 l 141 778 l 253 778 l 88 0 "},"≤":{"x_min":178,"x_max":981.359375,"ha":1157,"o":"m 981 110 l 981 16 l 178 16 l 178 110 l 981 110 m 980 718 l 344 508 l 980 301 l 980 200 l 178 467 l 178 550 l 980 818 l 980 718 "},"m":{"x_min":-26,"x_max":981,"ha":1039,"o":"m 83 0 l -26 0 l 139 778 l 242 778 l 223 688 q 326 767 272 741 q 437 794 380 794 q 547 765 507 794 q 596 680 587 737 q 708 767 654 740 q 821 794 762 794 q 939 757 898 794 q 981 654 981 721 q 978 611 981 632 q 971 568 976 589 l 850 0 l 741 0 l 860 562 q 867 604 865 585 q 870 632 870 622 q 846 688 870 667 q 782 710 822 710 q 678 675 728 710 q 590 580 627 641 l 466 0 l 356 0 l 476 562 q 483 603 481 585 q 486 632 486 622 q 462 688 486 667 q 399 710 439 710 q 291 673 343 710 q 206 580 239 636 l 83 0 "},"ž":{"x_min":-78,"x_max":569,"ha":539,"o":"m 394 0 l -78 0 l -58 95 l 403 684 l 86 684 l 111 778 l 557 778 l 538 689 l 78 100 l 415 100 l 394 0 m 189 1039 l 256 1039 l 348 934 l 493 1039 l 569 1039 l 403 863 l 286 863 l 189 1039 "},"á":{"x_min":-16,"x_max":540,"ha":616,"o":"m 391 398 q 350 381 371 388 q 300 367 329 373 l 238 353 q 127 294 162 336 q 93 177 93 252 q 119 98 93 127 q 191 69 145 69 q 305 122 264 69 q 376 325 346 176 l 391 398 m 353 95 q 270 5 312 31 q 169 -21 227 -21 q 32 32 81 -21 q -16 184 -16 86 q 35 350 -16 290 q 205 436 87 409 l 334 467 q 409 517 387 479 q 431 629 431 555 q 401 687 431 665 q 321 710 372 710 q 228 677 259 710 q 194 577 198 645 l 92 577 q 159 741 98 683 q 327 799 220 799 q 486 754 432 799 q 540 625 540 710 q 536 583 540 606 q 524 521 533 560 l 453 167 q 447 134 449 146 q 445 114 445 121 q 460 82 445 91 q 514 74 475 74 l 501 0 q 475 -9 488 -6 q 444 -12 462 -12 q 374 7 397 -12 q 350 69 350 27 q 352 88 350 74 q 353 95 353 93 m 345 863 l 278 863 l 413 1039 l 539 1039 l 345 863 "},"×":{"x_min":199,"x_max":968,"ha":1157,"o":"m 583 481 l 901 799 l 968 731 l 649 413 l 968 96 l 901 31 l 583 347 l 265 31 l 199 96 l 517 413 l 199 731 l 265 799 l 583 481 "},"İ":{"x_min":-16,"x_max":374,"ha":313,"o":"m 108 0 l -16 0 l 202 1044 l 324 1044 l 108 0 m 228 1143 l 255 1275 l 374 1275 l 344 1143 l 228 1143 "},"K":{"x_min":-16,"x_max":815,"ha":707,"o":"m 222 569 l 661 1044 l 815 1044 l 410 622 l 619 0 l 495 0 l 319 523 l 181 383 l 104 0 l -16 0 l 201 1044 l 320 1044 l 222 569 "},"7":{"x_min":138,"x_max":714,"ha":692,"o":"m 255 0 l 138 0 q 289 482 172 245 q 592 923 406 719 l 165 923 l 184 1029 l 714 1029 l 698 932 q 405 485 519 725 q 255 0 291 245 "},"¨":{"x_min":261,"x_max":616,"ha":694,"o":"m 478 879 l 503 1005 l 616 1005 l 589 879 l 478 879 m 261 879 l 287 1005 l 399 1005 l 372 879 l 261 879 "},"Y":{"x_min":29,"x_max":744,"ha":636,"o":"m 169 0 l 255 420 l 29 1044 l 156 1044 l 325 543 l 609 1044 l 744 1044 l 378 434 l 287 0 l 169 0 "},"E":{"x_min":-16,"x_max":659,"ha":664,"o":"m -16 0 l 202 1044 l 659 1044 l 636 942 l 300 942 l 228 597 l 590 597 l 568 494 l 207 494 l 125 106 l 522 106 l 501 0 l -16 0 "},"Ô":{"x_min":50,"x_max":780,"ha":829,"o":"m 484 969 q 357 924 410 969 q 268 787 304 880 q 236 687 252 744 q 206 564 220 630 q 177 400 186 469 q 169 274 169 330 q 216 127 169 179 q 350 76 264 76 q 473 118 422 76 q 559 248 524 160 q 591 346 575 287 q 623 478 608 404 q 654 655 643 575 q 665 781 665 735 q 617 919 665 869 q 484 969 569 969 m 50 298 q 59 430 50 356 q 88 589 69 504 q 129 738 107 672 q 176 856 151 805 q 306 1016 229 963 q 487 1069 384 1069 q 705 986 630 1069 q 780 745 780 903 q 770 614 780 687 q 741 456 760 542 q 701 309 723 377 q 655 190 679 241 q 524 29 603 82 q 341 -24 446 -24 q 124 58 198 -24 q 50 298 50 140 m 725 1130 l 658 1130 l 565 1233 l 420 1130 l 345 1130 l 510 1306 l 627 1306 l 725 1130 "},"Ï":{"x_min":-16,"x_max":478,"ha":313,"o":"m 108 0 l -16 0 l 202 1044 l 324 1044 l 108 0 m 340 1146 l 365 1272 l 478 1272 l 451 1146 l 340 1146 m 123 1146 l 149 1272 l 261 1272 l 234 1146 l 123 1146 "},"‹":{"x_min":39,"x_max":314,"ha":386,"o":"m 250 266 l 226 165 l 39 354 l 61 463 l 314 626 l 294 506 l 119 396 l 250 266 "},"±":{"x_min":172,"x_max":984,"ha":1157,"o":"m 984 116 l 984 20 l 172 20 l 172 116 l 984 116 m 626 809 l 626 578 l 984 578 l 984 484 l 626 484 l 626 253 l 530 253 l 530 484 l 172 484 l 172 578 l 530 578 l 530 809 l 626 809 "},"ì":{"x_min":-24,"x_max":320,"ha":283,"o":"m 88 0 l -24 0 l 141 778 l 254 778 l 88 0 m 320 863 l 253 863 l 51 1039 l 182 1039 l 320 863 "},"|":{"x_min":297,"x_max":399,"ha":694,"o":"m 399 1061 l 399 -328 l 297 -328 l 297 1061 l 399 1061 "},"§":{"x_min":22,"x_max":643,"ha":694,"o":"m 365 207 q 467 270 434 231 q 500 366 500 308 q 465 466 500 414 q 300 644 431 519 q 198 582 231 620 q 166 486 166 544 q 200 385 166 438 q 365 207 234 333 m 417 146 q 455 75 442 112 q 468 0 468 39 q 402 -153 468 -92 q 234 -214 336 -214 q 81 -153 140 -214 q 22 3 22 -92 q 22 20 22 14 q 23 30 22 25 l 133 30 q 132 19 133 26 q 132 7 132 11 q 159 -82 132 -51 q 239 -114 186 -114 q 322 -84 291 -114 q 354 -5 354 -54 q 331 65 354 29 q 228 181 308 101 q 82 352 113 296 q 51 467 51 408 q 100 610 51 550 q 248 705 150 670 q 210 777 223 740 q 198 851 198 813 q 263 1007 198 945 q 431 1069 329 1069 q 584 1008 525 1069 q 643 848 643 947 q 642 833 643 838 q 641 823 642 827 l 531 822 q 532 833 531 825 q 533 844 533 841 q 505 936 533 905 q 425 967 478 967 q 342 937 373 967 q 311 859 311 907 q 333 788 311 824 q 437 671 355 752 q 582 501 550 557 q 614 385 614 445 q 564 241 614 301 q 417 146 515 181 "},"q":{"x_min":28,"x_max":649,"ha":676,"o":"m 545 778 l 649 778 l 428 -264 l 315 -264 l 386 70 q 308 6 352 29 q 216 -16 265 -16 q 76 50 125 -16 q 28 242 28 117 q 55 464 28 351 q 126 654 83 578 q 224 763 168 726 q 347 800 280 800 q 459 763 413 800 q 521 663 506 727 l 545 778 m 252 74 q 332 106 294 74 q 399 200 370 138 q 454 370 431 268 q 477 547 477 471 q 447 660 477 620 q 366 701 418 701 q 270 663 310 701 q 197 544 229 625 q 154 386 170 473 q 138 226 138 299 q 168 114 138 154 q 252 74 199 74 "},"b":{"x_min":-25,"x_max":600,"ha":676,"o":"m 372 706 q 291 674 328 706 q 224 581 253 642 q 169 410 192 513 q 147 233 147 308 q 175 120 147 160 q 256 80 204 80 q 354 118 313 80 q 426 236 395 156 q 469 394 452 305 q 486 552 486 482 q 455 665 486 625 q 372 706 425 706 m 79 0 l -25 0 l 197 1042 l 309 1042 l 239 709 q 317 773 274 751 q 406 796 359 796 q 549 727 498 796 q 600 534 600 659 q 571 317 600 432 q 499 127 543 202 q 402 18 458 55 q 279 -18 347 -18 q 167 17 212 -18 q 105 117 121 53 l 79 0 "},"®":{"x_min":79,"x_max":1079,"ha":1157,"o":"m 571 717 l 484 717 l 484 529 l 574 529 q 684 550 651 529 q 718 619 718 571 q 683 693 718 670 q 571 717 648 717 m 590 786 q 768 746 709 786 q 828 630 828 707 q 794 530 828 570 q 698 478 760 490 l 825 220 l 705 220 l 589 461 l 484 461 l 484 220 l 377 220 l 377 786 l 590 786 m 1014 488 q 982 658 1014 579 q 890 798 950 737 q 748 894 827 861 q 579 927 669 927 q 413 895 491 927 q 276 803 335 863 q 178 658 212 739 q 144 492 144 577 q 176 329 144 407 q 271 188 209 250 q 412 92 332 126 q 575 59 491 59 q 743 91 663 59 q 887 186 822 124 q 981 323 948 246 q 1014 488 1014 401 m 577 993 q 771 955 680 993 q 934 844 863 917 q 1041 682 1004 773 q 1079 493 1079 592 q 1041 300 1079 390 q 933 141 1004 210 q 767 31 859 69 q 577 -7 675 -7 q 387 31 477 -7 q 224 142 296 69 q 116 304 153 214 q 79 493 79 394 q 118 684 79 592 q 230 851 157 777 q 387 957 298 921 q 577 993 475 993 "},"L":{"x_min":-14,"x_max":531,"ha":600,"o":"m -14 0 l 202 1044 l 321 1044 l 125 106 l 531 106 l 512 0 l -14 0 "}," ":{"x_min":0,"x_max":0,"ha":346},"∑":{"x_min":17,"x_max":908,"ha":936,"o":"m 37 999 l 890 999 l 890 868 l 240 868 l 695 381 l 225 -137 l 908 -137 l 908 -267 l 17 -267 l 17 -165 l 508 377 l 37 878 l 37 999 "},"À":{"x_min":-89,"x_max":615,"ha":714,"o":"m 219 400 l 488 400 l 473 963 l 219 400 m 35 0 l -89 0 l 412 1044 l 555 1044 l 615 0 l 502 0 l 491 294 l 170 294 l 35 0 m 602 1130 l 535 1130 l 333 1306 l 464 1306 l 602 1130 "},"+":{"x_min":172,"x_max":984,"ha":1157,"o":"m 626 828 l 626 461 l 984 461 l 984 367 l 626 367 l 626 0 l 530 0 l 530 367 l 172 367 l 172 461 l 530 461 l 530 828 l 626 828 "},"½":{"x_min":110,"x_max":1089,"ha":1101,"o":"m 1010 0 l 653 0 q 705 141 655 76 q 852 258 755 206 l 913 291 q 989 353 964 318 q 1015 430 1015 387 q 990 504 1015 479 q 920 530 966 530 q 846 498 872 530 q 810 400 819 467 l 739 400 q 794 537 746 488 q 923 586 842 586 q 1044 545 1000 586 q 1089 436 1089 505 q 1058 325 1089 370 q 953 242 1027 281 l 887 206 q 779 131 818 170 q 734 57 739 92 l 1024 57 l 1010 0 m 288 -24 l 204 -24 l 814 1044 l 898 1044 l 288 -24 m 214 449 l 145 449 l 248 905 q 203 895 226 898 q 156 892 181 892 q 127 892 137 892 q 110 893 117 892 l 120 937 q 227 962 187 940 q 294 1034 266 984 l 350 1034 l 214 449 "},"Ë":{"x_min":-16,"x_max":659,"ha":664,"o":"m -16 0 l 202 1044 l 659 1044 l 636 942 l 300 942 l 228 597 l 590 597 l 568 494 l 207 494 l 125 106 l 522 106 l 501 0 l -16 0 m 504 1146 l 529 1272 l 642 1272 l 615 1146 l 504 1146 m 287 1146 l 313 1272 l 425 1272 l 398 1146 l 287 1146 "},"'":{"x_min":61,"x_max":155,"ha":215,"o":"m 155 974 l 155 598 l 61 598 l 61 974 l 155 974 "},"Š":{"x_min":21,"x_max":729,"ha":750,"o":"m 23 320 l 135 320 l 135 303 q 178 132 135 186 q 315 78 222 78 q 475 137 417 78 q 534 299 534 197 q 355 489 534 418 q 309 508 325 501 q 170 602 211 547 q 129 747 129 658 q 215 979 129 891 q 443 1068 302 1068 q 644 999 569 1068 q 719 811 719 930 q 718 792 719 799 q 716 780 718 786 l 606 780 l 606 793 q 563 920 606 875 q 443 965 521 965 q 301 909 354 965 q 248 764 248 854 q 425 586 248 660 q 445 577 438 580 q 615 466 575 522 q 655 314 655 410 q 559 68 655 162 q 310 -25 464 -25 q 97 53 173 -25 q 21 271 21 131 q 23 315 21 287 q 23 320 23 318 m 349 1306 l 416 1306 l 508 1201 l 653 1306 l 729 1306 l 563 1130 l 446 1130 l 349 1306 "},"˛":{"x_min":94,"x_max":299,"ha":694,"o":"m 276 0 q 204 -79 226 -43 q 183 -150 183 -114 q 197 -191 183 -179 q 248 -203 212 -203 l 299 -203 l 278 -300 l 247 -300 q 132 -271 170 -300 q 94 -185 94 -242 q 122 -100 94 -142 q 220 0 150 -58 l 276 0 "},"ð":{"x_min":20,"x_max":596,"ha":676,"o":"m 483 517 q 447 631 483 592 q 344 671 411 671 q 260 642 295 671 q 200 554 224 613 q 151 392 169 479 q 134 233 134 304 q 167 115 134 155 q 267 76 201 76 q 362 109 324 76 q 426 216 400 143 q 467 374 451 290 q 483 517 483 458 m 466 702 q 424 794 450 753 q 360 862 397 834 l 208 783 l 183 828 l 315 902 q 261 940 290 923 q 196 972 232 957 l 215 1036 q 299 997 255 1021 q 394 938 344 972 l 561 1035 l 587 984 l 438 902 q 557 743 518 833 q 596 538 596 654 q 571 312 596 424 q 508 125 547 199 q 408 10 467 47 q 268 -26 350 -26 q 81 38 142 -26 q 20 233 20 102 q 41 421 20 323 q 98 591 63 519 q 199 716 139 673 q 333 760 259 760 q 404 746 372 760 q 466 702 436 732 "},"ş":{"x_min":-5,"x_max":540,"ha":611,"o":"m -2 230 l 103 230 q 102 217 103 225 q 102 205 102 209 q 134 105 102 138 q 234 72 167 72 q 337 111 298 72 q 376 216 376 151 q 355 295 376 266 q 273 349 334 323 q 116 447 151 403 q 82 566 82 492 q 145 739 82 676 q 316 803 208 803 q 479 752 418 803 q 540 617 540 701 q 537 580 540 606 q 537 576 537 577 l 438 576 l 438 580 q 406 677 438 644 q 315 710 375 710 q 225 674 258 710 q 192 580 192 639 q 312 453 192 508 q 357 432 341 440 q 459 353 428 399 q 490 235 490 307 q 418 43 490 114 q 227 -28 347 -28 q 57 27 119 -28 q -5 179 -5 83 q -4 200 -5 183 q -2 230 -3 217 m 34 -291 l 58 -227 q 130 -244 99 -238 q 179 -250 160 -250 q 249 -234 227 -250 q 271 -183 271 -218 q 243 -141 271 -154 q 150 -129 216 -129 l 136 -129 l 180 0 l 231 0 l 208 -69 l 223 -69 q 331 -97 294 -69 q 368 -181 368 -126 q 323 -284 368 -248 q 198 -321 279 -321 q 131 -314 170 -321 q 34 -291 92 -307 "},"ı":{"x_min":-24,"x_max":254,"ha":283,"o":"m 88 0 l -24 0 l 141 778 l 254 778 l 88 0 "},"Ć":{"x_min":50,"x_max":751,"ha":802,"o":"m 576 345 l 683 345 q 560 72 653 170 q 328 -25 466 -25 q 120 59 191 -25 q 50 307 50 143 q 85 590 50 435 q 174 858 120 745 q 304 1018 226 965 q 487 1071 381 1071 q 682 1000 614 1071 q 751 800 751 930 q 749 757 751 781 q 744 701 747 732 l 632 701 q 635 745 634 724 q 637 783 637 766 q 596 927 637 878 q 477 977 555 977 q 352 928 405 977 q 264 783 299 880 q 234 682 249 741 q 205 555 218 623 q 180 406 188 477 q 172 283 172 334 q 213 124 172 178 q 337 71 255 71 q 486 143 423 71 q 576 345 550 216 m 494 1130 l 427 1130 l 562 1306 l 688 1306 l 494 1130 "},"ä":{"x_min":-16,"x_max":554,"ha":616,"o":"m 391 398 q 350 381 371 388 q 300 367 329 373 l 238 353 q 127 294 162 336 q 93 177 93 252 q 119 98 93 127 q 191 69 145 69 q 305 122 264 69 q 376 325 346 176 l 391 398 m 353 95 q 270 5 312 31 q 169 -21 227 -21 q 32 32 81 -21 q -16 184 -16 86 q 35 350 -16 290 q 205 436 87 409 l 334 467 q 409 517 387 479 q 431 629 431 555 q 401 687 431 665 q 321 710 372 710 q 228 677 259 710 q 194 577 198 645 l 92 577 q 159 741 98 683 q 327 799 220 799 q 486 754 432 799 q 540 625 540 710 q 536 583 540 606 q 524 521 533 560 l 453 167 q 447 134 449 146 q 445 114 445 121 q 460 82 445 91 q 514 74 475 74 l 501 0 q 475 -9 488 -6 q 444 -12 462 -12 q 374 7 397 -12 q 350 69 350 27 q 352 88 350 74 q 353 95 353 93 m 416 879 l 441 1005 l 554 1005 l 527 879 l 416 879 m 199 879 l 225 1005 l 337 1005 l 310 879 l 199 879 "},"¹":{"x_min":114,"x_max":366,"ha":456,"o":"m 225 408 l 151 408 l 258 897 q 210 886 233 890 q 164 882 186 882 q 142 882 154 882 q 114 885 131 883 l 125 932 q 236 958 195 935 q 307 1035 278 982 l 366 1035 l 225 408 "},"£":{"x_min":41,"x_max":670,"ha":692,"o":"m 68 -23 l 41 92 q 145 218 105 130 q 185 408 185 305 q 184 432 185 420 q 181 460 183 443 l 68 460 l 84 529 l 173 529 q 156 643 161 596 q 151 724 151 690 q 225 957 151 870 q 424 1044 300 1044 q 603 980 537 1044 q 670 809 670 917 q 667 764 670 789 q 659 706 664 739 l 547 706 q 554 767 552 745 q 556 806 556 788 q 519 913 556 875 q 417 951 483 951 q 303 893 341 951 q 266 722 266 835 q 270 645 266 690 q 286 529 275 600 l 507 529 l 490 460 l 290 460 q 290 449 290 455 q 291 434 291 444 q 247 236 291 328 q 127 92 203 144 l 128 84 q 202 113 169 104 q 271 122 236 122 q 393 102 323 122 q 484 83 462 83 q 539 96 513 83 q 599 144 566 110 l 604 139 l 558 -5 q 519 -21 539 -16 q 475 -26 499 -26 q 343 3 428 -26 q 207 32 258 32 q 132 18 166 32 q 68 -23 98 5 "},"W":{"x_min":93,"x_max":1174,"ha":1105,"o":"m 286 0 l 151 0 l 93 1044 l 208 1044 l 238 143 l 560 1044 l 702 1044 l 731 143 l 1053 1044 l 1174 1044 l 780 0 l 640 0 l 608 884 l 286 0 "},"Ğ":{"x_min":50,"x_max":762,"ha":817,"o":"m 606 421 l 381 421 l 400 519 l 742 519 l 638 0 l 552 0 l 565 108 q 476 9 533 43 q 341 -24 419 -24 q 127 64 205 -24 q 50 308 50 152 q 59 435 50 364 q 87 591 68 507 q 127 741 106 676 q 174 857 149 807 q 307 1018 228 965 q 489 1071 385 1071 q 686 1000 617 1071 q 755 799 755 929 q 753 756 755 780 q 748 700 751 731 l 635 699 q 637 727 636 709 q 641 784 641 770 q 598 925 641 876 q 477 974 556 974 q 354 927 405 974 q 267 783 303 881 q 198 528 223 661 q 173 283 173 395 q 219 121 173 178 q 350 65 265 65 q 524 159 455 65 q 606 421 593 254 m 386 1302 l 452 1302 q 477 1240 454 1260 q 547 1221 500 1221 q 635 1240 600 1221 q 693 1302 671 1260 l 762 1302 q 681 1176 737 1219 q 541 1134 625 1134 q 425 1172 465 1134 q 386 1286 386 1211 l 386 1302 "},"v":{"x_min":57,"x_max":595,"ha":562,"o":"m 225 0 l 109 0 l 57 778 l 165 778 l 193 128 l 472 778 l 595 778 l 225 0 "},">":{"x_min":179,"x_max":978,"ha":1157,"o":"m 978 458 l 978 371 l 179 43 l 179 147 l 837 413 l 179 682 l 179 786 l 978 458 "},"û":{"x_min":5,"x_max":629,"ha":656,"o":"m 125 213 q 118 172 120 190 q 116 145 116 154 q 139 89 116 110 q 203 68 163 68 q 308 101 257 68 q 395 196 358 135 l 519 778 l 629 778 l 463 0 l 358 0 l 378 87 q 276 8 329 34 q 166 -18 224 -18 q 47 18 89 -18 q 5 122 5 55 q 7 165 5 143 q 15 209 9 186 l 135 778 l 244 778 l 125 213 m 582 863 l 515 863 l 422 966 l 277 863 l 202 863 l 367 1039 l 484 1039 l 582 863 "},"Ð":{"x_min":-8,"x_max":773,"ha":833,"o":"m 139 104 l 270 104 q 454 133 400 104 q 550 238 508 163 q 620 442 594 319 q 646 699 646 565 q 593 885 646 831 q 411 940 540 940 l 314 940 l 242 607 l 449 607 l 428 510 l 222 510 l 139 104 m -2 0 l 104 510 l -8 510 l 12 607 l 124 607 l 215 1044 l 439 1044 q 691 958 610 1044 q 773 692 773 873 q 732 386 773 537 q 628 148 691 235 q 493 33 569 67 q 254 0 416 0 l -2 0 "},"r":{"x_min":-24,"x_max":465,"ha":418,"o":"m -24 0 l 141 778 l 242 778 l 214 652 q 307 756 252 719 q 423 794 361 794 q 444 792 433 794 q 465 788 454 791 l 443 676 q 422 681 431 679 q 403 683 412 683 q 264 621 321 683 q 181 445 206 560 l 87 0 l -24 0 "},"Č":{"x_min":50,"x_max":751,"ha":802,"o":"m 576 345 l 683 345 q 560 72 653 170 q 328 -25 466 -25 q 120 59 191 -25 q 50 307 50 143 q 85 590 50 435 q 174 858 120 745 q 304 1018 226 965 q 487 1071 381 1071 q 682 1000 614 1071 q 751 800 751 930 q 749 757 751 781 q 744 701 747 732 l 632 701 q 635 745 634 724 q 637 783 637 766 q 596 927 637 878 q 477 977 555 977 q 352 928 405 977 q 264 783 299 880 q 234 682 249 741 q 205 555 218 623 q 180 406 188 477 q 172 283 172 334 q 213 124 172 178 q 337 71 255 71 q 486 143 423 71 q 576 345 550 216 m 354 1306 l 421 1306 l 513 1201 l 658 1306 l 734 1306 l 568 1130 l 451 1130 l 354 1306 "},"x":{"x_min":-97,"x_max":574,"ha":545,"o":"m 227 304 l 29 0 l -97 0 l 179 411 l 63 778 l 177 778 l 261 505 l 445 778 l 574 778 l 306 397 l 437 0 l 325 0 l 227 304 "},"è":{"x_min":24,"x_max":564,"ha":636,"o":"m 171 472 l 451 472 q 457 527 455 502 q 460 572 460 552 q 430 675 460 640 q 344 710 401 710 q 238 653 280 710 q 171 472 196 596 m 516 256 q 424 48 495 123 q 250 -26 353 -26 q 82 44 141 -26 q 24 244 24 114 q 47 445 24 336 q 104 628 70 555 q 205 757 144 713 q 348 802 266 802 q 510 741 457 802 q 564 556 564 680 q 558 475 564 520 q 542 379 553 429 l 153 379 q 140 299 144 331 q 137 240 137 266 q 167 117 137 158 q 257 77 197 77 q 357 121 317 77 q 414 256 396 166 l 516 256 m 474 863 l 407 863 l 205 1039 l 336 1039 l 474 863 "},"Ø":{"x_min":26.34375,"x_max":806.453125,"ha":828,"o":"m 211 131 q 272 89 237 103 q 350 76 306 76 q 483 127 429 76 q 573 288 536 178 q 602 394 588 333 q 631 529 617 454 q 656 686 648 620 q 665 789 665 752 q 663 813 665 800 q 660 840 662 825 l 211 131 m 80 -78 l 26 -41 l 104 82 q 63 171 77 116 q 50 303 50 226 q 59 434 50 363 q 87 589 68 506 q 128 742 107 676 q 174 856 150 807 q 305 1015 227 962 q 485 1069 383 1069 q 595 1053 544 1069 q 685 1006 646 1037 l 748 1104 l 806 1071 l 731 953 q 768 858 757 908 q 780 745 780 808 q 769 616 780 689 q 740 456 759 544 q 698 304 720 371 q 653 190 676 237 q 523 29 601 82 q 341 -24 445 -24 q 238 -10 287 -24 q 149 31 190 3 l 80 -78 m 177 200 l 627 912 q 564 954 600 939 q 484 969 527 969 q 356 924 409 969 q 267 787 303 879 q 196 533 223 675 q 169 280 169 390 q 171 242 169 262 q 177 200 173 222 "},"÷":{"x_min":172,"x_max":986,"ha":1157,"o":"m 579 249 q 638 223 613 249 q 664 164 664 198 q 639 103 664 128 q 579 79 614 79 q 518 103 542 79 q 494 164 494 127 q 519 223 494 198 q 579 249 544 249 m 986 461 l 986 367 l 172 367 l 172 461 l 986 461 m 579 749 q 638 723 613 749 q 664 663 664 698 q 639 603 664 628 q 579 579 614 579 q 518 603 543 579 q 494 663 494 628 q 519 723 494 698 q 579 749 544 749 "},"h":{"x_min":-25,"x_max":600,"ha":657,"o":"m 86 0 l -25 0 l 197 1042 l 307 1042 l 234 698 q 331 769 280 745 q 438 794 383 794 q 557 757 515 794 q 600 654 600 721 q 597 611 600 632 q 589 567 595 589 l 467 0 l 358 0 l 478 562 q 486 609 484 593 q 489 632 489 625 q 464 688 489 667 q 400 710 440 710 q 296 675 346 710 q 208 580 245 641 l 86 0 "},".":{"x_min":4,"x_max":164,"ha":346,"o":"m 133 0 l 4 0 l 33 139 l 164 139 l 133 0 "},"f":{"x_min":-7,"x_max":433,"ha":354,"o":"m -7 0 l 141 695 l 50 695 l 67 778 l 159 778 l 191 913 q 243 1023 211 993 q 334 1053 275 1053 q 374 1050 351 1053 q 433 1042 398 1047 l 413 953 q 401 953 409 953 q 367 956 376 956 q 316 938 332 956 q 288 871 299 920 l 269 778 l 376 778 l 359 695 l 251 695 l 101 0 l -7 0 "},"“":{"x_min":139,"x_max":607,"ha":610,"o":"m 266 731 l 139 731 l 173 901 q 230 1014 187 970 q 339 1069 274 1058 l 328 1010 q 263 961 286 994 q 235 870 240 927 l 296 870 l 266 731 m 536 731 l 407 731 l 443 901 q 500 1015 457 971 q 607 1069 543 1058 l 597 1010 q 531 961 554 994 q 503 870 509 928 l 566 870 l 536 731 "},"A":{"x_min":-89,"x_max":615,"ha":714,"o":"m 219 400 l 488 400 l 473 963 l 219 400 m 35 0 l -89 0 l 412 1044 l 555 1044 l 615 0 l 502 0 l 491 294 l 170 294 l 35 0 "},"O":{"x_min":50,"x_max":780,"ha":829,"o":"m 484 969 q 357 924 410 969 q 268 787 304 880 q 236 687 252 744 q 206 564 220 630 q 177 400 186 469 q 169 274 169 330 q 216 127 169 179 q 350 76 264 76 q 473 118 422 76 q 559 248 524 160 q 591 346 575 287 q 623 478 608 404 q 654 655 643 575 q 665 781 665 735 q 617 919 665 869 q 484 969 569 969 m 50 298 q 59 430 50 356 q 88 589 69 504 q 129 738 107 672 q 176 856 151 805 q 306 1016 229 963 q 487 1069 384 1069 q 705 986 630 1069 q 780 745 780 903 q 770 614 780 687 q 741 456 760 542 q 701 309 723 377 q 655 190 679 241 q 524 29 603 82 q 341 -24 446 -24 q 124 58 198 -24 q 50 298 50 140 "},"π":{"x_min":-21,"x_max":810,"ha":818,"o":"m 786 619 l 662 619 l 591 288 q 576 207 581 238 q 571 161 571 176 q 586 105 571 122 q 640 89 602 89 q 667 90 651 89 q 708 95 683 92 l 687 0 q 648 -8 667 -5 q 612 -11 630 -11 q 491 23 532 -11 q 450 126 450 58 q 457 206 450 157 q 487 364 464 254 l 541 619 l 320 619 l 189 0 l 66 0 l 198 619 l 170 619 q 113 597 134 619 q 87 528 93 575 l -21 528 q 46 683 -2 641 q 206 726 94 726 l 810 726 l 786 619 "},"‘":{"x_min":139,"x_max":339,"ha":340,"o":"m 267 731 l 139 731 l 174 901 q 232 1015 189 971 q 339 1069 275 1058 l 328 1010 q 263 961 286 994 q 235 870 240 927 l 297 870 l 267 731 "},"3":{"x_min":18,"x_max":665,"ha":692,"o":"m 26 324 l 134 324 q 133 299 133 311 q 133 277 133 287 q 168 125 133 172 q 282 78 204 78 q 422 148 368 78 q 477 331 477 219 q 424 455 477 413 q 270 498 371 498 l 266 498 l 284 587 l 303 587 q 488 641 427 587 q 550 806 550 696 q 517 910 550 875 q 418 946 484 946 q 315 902 356 946 q 258 777 273 858 l 152 777 q 238 974 166 903 q 420 1046 310 1046 q 599 980 534 1046 q 665 801 665 914 q 609 624 665 698 q 464 531 554 550 q 561 441 530 494 q 592 317 592 389 q 505 74 592 171 q 285 -22 419 -22 q 89 50 161 -22 q 18 249 18 123 q 20 285 18 267 q 26 324 22 304 "},"9":{"x_min":32,"x_max":653,"ha":692,"o":"m 348 445 q 485 532 431 445 q 539 758 539 619 q 504 895 539 848 q 403 942 469 942 q 322 921 355 942 q 263 852 289 900 q 223 750 238 808 q 209 642 209 692 q 242 492 209 540 q 348 445 276 445 m 500 451 q 416 377 460 401 q 319 353 372 353 q 152 428 215 353 q 90 632 90 504 q 180 928 90 811 q 406 1046 270 1046 q 590 964 527 1046 q 653 725 653 883 q 619 441 653 591 q 533 184 585 290 q 412 26 480 77 q 251 -24 343 -24 q 91 38 151 -24 q 32 207 32 101 l 32 219 q 32 220 32 219 q 33 238 33 229 l 138 238 q 169 112 140 153 q 258 72 198 72 q 403 165 343 72 q 500 451 463 259 "},"l":{"x_min":-22,"x_max":310,"ha":283,"o":"m -22 0 l 198 1042 l 310 1042 l 88 0 l -22 0 "},"":{"x_min":-7,"x_max":649,"ha":621,"o":"m 425 0 l 313 0 l 478 778 l 590 778 l 425 0 m 509 917 l 536 1053 l 649 1053 l 619 917 l 509 917 m -7 0 l 141 695 l 50 695 l 67 778 l 159 778 l 191 912 q 242 1023 211 993 q 334 1053 274 1053 q 374 1050 350 1053 q 432 1042 398 1047 l 412 953 q 400 953 408 953 q 367 956 375 956 q 315 938 332 956 q 288 870 299 920 l 268 778 l 375 778 l 357 695 l 251 695 l 101 0 l -7 0 "},"4":{"x_min":1,"x_max":651,"ha":692,"o":"m 407 370 l 514 878 l 121 370 l 407 370 m 440 0 l 333 0 l 383 272 l 1 272 l 23 380 l 542 1044 l 651 1044 l 516 370 l 619 370 l 599 272 l 495 272 l 440 0 "},"Ü":{"x_min":47,"x_max":823,"ha":806,"o":"m 176 336 q 175 327 176 332 q 162 222 162 260 q 208 111 162 148 q 349 75 255 75 q 471 117 429 75 q 537 268 514 160 l 702 1044 l 823 1044 l 663 285 q 552 46 628 118 q 340 -25 477 -25 q 122 37 197 -25 q 47 216 47 99 q 52 290 47 243 q 68 388 58 338 l 203 1044 l 324 1044 l 176 336 m 591 1146 l 616 1272 l 729 1272 l 702 1146 l 591 1146 m 374 1146 l 400 1272 l 512 1272 l 485 1146 l 374 1146 "},"à":{"x_min":-16,"x_max":540,"ha":616,"o":"m 391 398 q 350 381 371 388 q 300 367 329 373 l 238 353 q 127 294 162 336 q 93 177 93 252 q 119 98 93 127 q 191 69 145 69 q 305 122 264 69 q 376 325 346 176 l 391 398 m 353 95 q 270 5 312 31 q 169 -21 227 -21 q 32 32 81 -21 q -16 184 -16 86 q 35 350 -16 290 q 205 436 87 409 l 334 467 q 409 517 387 479 q 431 629 431 555 q 401 687 431 665 q 321 710 372 710 q 228 677 259 710 q 194 577 198 645 l 92 577 q 159 741 98 683 q 327 799 220 799 q 486 754 432 799 q 540 625 540 710 q 536 583 540 606 q 524 521 533 560 l 453 167 q 447 134 449 146 q 445 114 445 121 q 460 82 445 91 q 514 74 475 74 l 501 0 q 475 -9 488 -6 q 444 -12 462 -12 q 374 7 397 -12 q 350 69 350 27 q 352 88 350 74 q 353 95 353 93 m 457 863 l 390 863 l 188 1039 l 319 1039 l 457 863 "},"ó":{"x_min":21,"x_max":603,"ha":676,"o":"m 352 704 q 268 673 303 704 q 205 577 232 642 q 153 403 173 498 q 134 237 134 308 q 167 116 134 157 q 266 75 201 75 q 363 109 325 75 q 427 222 402 144 q 473 400 456 310 q 490 548 490 490 q 454 663 490 623 q 352 704 418 704 m 21 240 q 44 439 21 333 q 105 625 67 544 q 208 758 147 714 q 351 803 269 803 q 538 735 474 803 q 603 540 603 668 q 576 327 603 442 q 512 137 550 212 q 408 15 471 55 q 261 -25 345 -25 q 81 41 141 -25 q 21 240 21 107 m 389 863 l 322 863 l 457 1039 l 583 1039 l 389 863 "}}}
